<?xml version="1.0" standalone="no"?>
<!DOCTYPE svg PUBLIC "-//W3C//DTD SVG 20010904//EN"
 "http://www.w3.org/TR/2001/REC-SVG-20010904/DTD/svg10.dtd">
<svg version="1.0" xmlns="http://www.w3.org/2000/svg"
 width="1024.000000pt" height="1024.000000pt" viewBox="0 0 1024.000000 1024.000000"
 preserveAspectRatio="xMidYMid meet">

<g transform="translate(0.000000,1024.000000) scale(0.100000,-0.100000)"
fill="#000000" stroke="none">
<path d="M0 8610 c0 -1158 3 -1630 10 -1630 6 0 9 4 6 9 -3 4 6 18 19 31 13
13 22 27 19 31 -3 5 -1 9 4 9 5 0 16 10 25 23 13 21 13 23 -4 23 -13 0 -18 -5
-14 -16 5 -11 3 -12 -6 -3 -12 12 -3 37 11 28 5 -3 11 -1 15 5 4 6 10 8 15 5
10 -6 46 54 42 68 -1 5 2 6 7 3 5 -3 24 18 42 47 19 28 40 58 47 66 26 27 44
60 37 71 -4 6 -1 17 5 25 6 8 8 20 4 27 -5 10 -4 11 7 1 10 -10 10 -16 1 -25
-7 -7 -12 -17 -12 -22 1 -6 9 0 20 13 11 12 17 28 13 34 -3 6 -1 7 5 3 13 -8
35 28 24 39 -4 3 -1 5 7 3 7 -2 16 3 19 11 3 9 0 11 -8 6 -9 -5 -11 -4 -6 4 4
6 12 9 17 6 5 -3 22 16 38 42 16 26 39 60 50 75 12 14 21 30 21 35 0 4 -7 -1
-15 -11 -8 -11 -15 -16 -15 -10 1 18 28 46 32 33 2 -7 17 7 34 31 16 23 39 54
52 67 12 13 19 29 16 35 -4 6 -3 8 3 5 14 -9 66 60 57 75 -4 6 -3 8 3 5 6 -4
25 16 44 43 19 28 37 50 42 50 9 0 10 3 -14 -60 -20 -53 -37 -92 -98 -225 -27
-57 -27 -60 -9 -63 16 -3 19 -11 18 -55 -3 -109 -1 -139 13 -131 7 4 9 3 4 -2
-5 -5 -14 -9 -20 -9 -7 0 -11 -11 -9 -28 2 -15 -1 -27 -6 -27 -6 0 -8 -10 -5
-22 4 -19 3 -20 -6 -8 -8 11 -11 11 -12 3 -3 -28 -4 -32 -11 -39 -5 -4 -8 -14
-8 -23 0 -14 2 -14 10 -1 7 10 10 11 10 2 0 -7 -6 -15 -14 -18 -8 -3 -12 -12
-9 -20 3 -9 -1 -14 -11 -14 -13 0 -15 -4 -7 -18 7 -14 5 -22 -9 -32 -10 -8
-17 -17 -14 -21 9 -15 -8 -59 -22 -59 -8 0 -14 -8 -14 -18 0 -10 -5 -23 -12
-30 -9 -9 -9 -12 0 -12 6 0 9 -7 6 -15 -4 -8 -9 -13 -14 -10 -4 2 -7 -8 -8
-23 -2 -51 -5 -63 -18 -58 -7 3 -11 0 -8 -7 5 -14 -106 -97 -130 -97 -10 0
-16 18 -21 68 -4 37 -10 72 -14 78 -4 8 -36 -9 -91 -45 l-85 -57 -47 -125 -47
-124 0 -1450 0 -1450 39 120 c21 66 59 183 83 260 59 186 253 780 442 1355 84
256 178 546 210 645 31 99 97 302 146 450 48 149 100 308 115 355 15 47 39
121 55 165 15 44 51 154 79 245 29 91 65 201 80 245 74 211 140 433 134 450
-5 12 -4 16 3 12 15 -9 67 146 61 178 -3 13 -2 24 1 23 19 -2 22 4 11 17 -11
13 -10 14 6 8 17 -6 18 -5 4 12 -14 17 -13 18 2 12 14 -5 26 9 58 63 22 38 40
79 40 92 0 14 3 19 8 11 6 -9 11 -6 21 8 7 12 8 18 2 14 -6 -3 -11 -1 -11 4 0
6 7 11 15 11 17 0 77 99 68 113 -3 6 -1 7 4 4 14 -9 56 61 47 75 -4 6 -3 8 3
5 11 -7 59 71 55 90 -1 6 3 15 9 19 8 4 9 3 5 -4 -4 -7 -5 -12 -3 -12 2 0 21
25 41 56 21 31 32 53 24 48 -7 -4 0 5 15 20 17 16 27 33 23 42 -3 8 -1 12 4 9
13 -8 123 164 116 182 -3 8 -2 11 4 8 5 -3 17 6 26 20 34 52 33 7 -2 -95 -19
-58 -40 -125 -46 -149 -10 -41 -9 -45 18 -66 18 -14 24 -26 19 -35 -4 -7 -8
-32 -7 -54 1 -27 -1 -36 -7 -27 -6 9 -11 -3 -14 -40 -8 -78 -18 -123 -31 -131
-8 -6 -8 -8 1 -8 9 0 9 -8 1 -32 -5 -18 -10 -44 -9 -58 1 -20 -1 -22 -9 -10
-7 12 -10 8 -10 -15 0 -17 6 -37 13 -44 10 -11 9 -13 -4 -9 -12 5 -15 -1 -12
-26 2 -29 2 -29 -6 -6 -7 20 -9 15 -11 -30 -1 -30 -4 -49 -7 -42 -2 6 -9 10
-13 7 -5 -3 -7 -12 -3 -20 3 -9 -1 -15 -11 -15 -17 0 -20 -9 -16 -50 2 -20 -1
-22 -12 -12 -12 9 -19 7 -38 -13 -33 -36 -97 -78 -108 -71 -12 7 -10 11 -196
-554 -86 -261 -203 -617 -260 -790 -105 -319 -339 -1032 -448 -1370 -33 -102
-102 -313 -153 -470 -109 -333 -326 -998 -385 -1185 -23 -71 -96 -292 -161
-489 l-119 -359 0 -1449 0 -1448 78 0 77 0 31 123 c38 148 198 725 259 932 24
83 65 224 90 315 25 91 52 185 61 210 8 25 77 263 153 530 156 544 332 1154
385 1335 20 66 79 269 132 450 53 182 143 490 201 685 58 195 120 407 138 470
29 103 69 236 182 615 19 66 46 156 58 200 13 44 44 152 70 240 25 88 109 376
186 640 77 264 191 651 254 860 62 209 120 403 128 430 8 28 58 192 110 365
52 173 123 410 157 525 195 661 259 821 396 992 108 136 278 258 424 304 l55
18 -83 0 c-53 1 -81 -3 -77 -9 3 -5 2 -10 -4 -10 -5 0 -13 4 -16 10 -10 16
-2632 13 -2638 -3 -4 -9 -6 -9 -6 1 -1 9 -57 12 -245 12 -186 0 -246 -3 -249
-12 -4 -9 -6 -9 -6 -1 -1 8 -44 12 -151 12 l-149 2 -1 -1631z m170 1580 c0 -5
-7 -7 -15 -4 -8 4 -15 8 -15 10 0 2 7 4 15 4 8 0 15 -4 15 -10z m3260 6 c0 -2
-7 -7 -16 -10 -8 -3 -12 -2 -9 4 6 10 25 14 25 6z m-50 -21 c0 -7 -43 -45 -52
-45 -10 0 34 49 45 49 4 1 7 -1 7 -4z m-3230 -15 c-8 -5 -19 -10 -25 -10 -5 0
-3 5 5 10 8 5 20 10 25 10 6 0 3 -5 -5 -10z m80 -80 c-8 -5 -19 -10 -25 -10
-5 0 -3 5 5 10 8 5 20 10 25 10 6 0 3 -5 -5 -10z m1547 -22 c-3 -8 -6 -5 -6 6
-1 11 2 17 5 13 3 -3 4 -12 1 -19z m1473 18 c0 -2 -8 -10 -17 -17 -16 -13 -17
-12 -4 4 13 16 21 21 21 13z m-3160 -21 c7 -9 8 -15 2 -15 -5 0 -12 7 -16 15
-3 8 -4 15 -2 15 2 0 9 -7 16 -15z m3090 -48 c0 -2 -10 -12 -22 -23 l-23 -19
19 23 c18 21 26 27 26 19z m-3010 -17 c0 -5 -2 -10 -4 -10 -3 0 -8 5 -11 10
-3 6 -1 10 4 10 6 0 11 -4 11 -10z m1340 -60 c0 -5 -5 -10 -11 -10 -5 0 -7 5
-4 10 3 6 8 10 11 10 2 0 4 -4 4 -10z m1563 -45 c-3 -9 -8 -14 -10 -11 -3 3
-2 9 2 15 9 16 15 13 8 -4z m-2516 -197 c-3 -8 -6 -5 -6 6 -1 11 2 17 5 13 3
-3 4 -12 1 -19z m-383 -95 c-5 -5 -12 -12 -16 -18 -4 -6 -8 -2 -8 8 0 9 7 17
17 17 9 0 12 -3 7 -7z m466 -123 c0 -5 -2 -10 -4 -10 -3 0 -8 5 -11 10 -3 6
-1 10 4 10 6 0 11 -4 11 -10z m1243 -545 c-3 -9 -8 -14 -10 -11 -3 3 -2 9 2
15 9 16 15 13 8 -4z m-189 -271 c3 -8 2 -12 -4 -9 -6 3 -10 10 -10 16 0 14 7
11 14 -7z m-42 -79 c-3 -5 -7 -16 -8 -23 -2 -8 -5 -17 -8 -20 -4 -3 -4 5 -2
19 2 13 5 33 5 44 1 16 3 17 10 5 6 -8 7 -19 3 -25z m338 -95 c0 -5 -2 -10 -4
-10 -3 0 -8 5 -11 10 -3 6 -1 10 4 10 6 0 11 -4 11 -10z m-458 -22 c-7 -7 -12
-8 -12 -2 0 14 12 26 19 19 2 -3 -1 -11 -7 -17z m53 12 c3 -5 0 -7 -7 -5 -8 3
-21 -7 -31 -24 -21 -35 -22 -53 -2 -27 8 11 15 15 15 10 0 -6 -6 -18 -13 -28
-13 -18 -14 -18 -21 -1 -4 10 2 31 15 51 21 35 33 41 44 24z m327 -345 c3 -14
1 -25 -3 -25 -5 0 -9 11 -9 25 0 14 2 25 4 25 2 0 6 -11 8 -25z m-1475 -467
c-3 -8 -6 -5 -6 6 -1 11 2 17 5 13 3 -3 4 -12 1 -19z m-17 -79 c-7 -11 -14
-18 -17 -15 -3 3 0 12 7 21 18 21 23 19 10 -6z m237 -55 c-3 -3 -12 -4 -19 -1
-8 3 -5 6 6 6 11 1 17 -2 13 -5z m-471 -276 c-19 -26 -20 -20 -5 19 6 15 13
22 16 16 2 -7 -3 -23 -11 -35z m-71 -95 c-9 -15 -13 -19 -10 -8 4 11 10 29 13
40 3 11 7 14 9 8 3 -7 -3 -24 -12 -40z m-94 -90 c-12 -20 -14 -14 -5 12 4 9 9
14 11 11 3 -2 0 -13 -6 -23z"/>
<path d="M3625 10222 c-267 -79 -492 -287 -615 -571 -35 -81 -129 -385 -250
-806 -59 -207 -240 -816 -340 -1145 -38 -124 -98 -328 -135 -455 -37 -126 -82
-279 -100 -340 -19 -60 -73 -245 -120 -410 -93 -321 -227 -778 -455 -1550 -79
-264 -155 -525 -170 -580 -15 -55 -52 -183 -83 -285 -30 -102 -74 -250 -97
-330 -23 -80 -59 -203 -80 -275 -59 -200 -152 -517 -224 -765 -36 -124 -112
-387 -170 -585 -57 -198 -111 -385 -119 -415 -8 -30 -76 -266 -150 -525 -74
-259 -158 -553 -187 -655 -28 -102 -71 -256 -96 -342 -24 -86 -44 -164 -44
-172 0 -19 26 -21 33 -3 4 9 6 9 6 -1 1 -10 1004 -12 5006 -12 l5005 0 0 5120
0 5120 -3082 -1 c-1696 0 -3078 -2 -3073 -4 6 -2 87 -25 180 -51 94 -25 244
-69 335 -96 91 -27 208 -62 260 -78 52 -16 169 -51 260 -78 91 -27 230 -68
310 -92 80 -23 201 -59 270 -80 134 -41 194 -59 505 -150 110 -32 252 -74 315
-93 63 -20 230 -70 370 -112 140 -42 305 -91 365 -110 61 -19 144 -44 185 -55
41 -12 176 -52 300 -90 124 -37 304 -91 400 -120 316 -93 453 -138 553 -183
94 -42 78 -44 -24 -2 -46 18 -122 45 -169 59 -47 14 -152 46 -235 71 -82 25
-217 66 -300 90 -82 24 -203 60 -267 79 -283 86 -365 111 -577 172 -124 36
-302 90 -396 119 -153 48 -545 165 -620 185 -16 4 -106 31 -200 60 -93 28
-262 79 -375 111 -113 33 -232 68 -265 78 -33 10 -177 53 -320 95 -143 42
-294 88 -335 101 -41 13 -163 48 -270 79 -107 31 -217 64 -245 73 -77 26 -388
29 -470 5z m488 -36 c112 -31 361 -105 1112 -331 99 -29 349 -104 555 -165
206 -61 418 -124 470 -140 450 -136 650 -196 800 -240 96 -29 249 -74 340
-102 91 -27 203 -61 250 -75 278 -80 926 -278 985 -300 167 -62 303 -150 418
-272 90 -96 105 -132 20 -48 -38 37 -72 67 -77 67 -4 0 -20 10 -35 23 -53 44
-218 137 -311 175 -52 22 -165 60 -250 86 -85 26 -191 58 -235 71 -44 13 -127
38 -185 55 -58 17 -148 45 -200 60 -114 35 -269 81 -485 145 -88 26 -232 69
-320 95 -647 195 -1135 341 -1305 390 -80 23 -201 59 -270 80 -69 21 -195 59
-280 84 -171 49 -348 101 -515 151 -292 88 -408 115 -515 122 -68 4 -125 1
-195 -11 -298 -51 -506 -181 -652 -410 -35 -54 -46 -53 -13 2 11 17 16 32 11
32 -4 0 -13 -11 -19 -25 -6 -14 -16 -25 -21 -25 -5 0 -11 -10 -13 -22 -2 -19
-8 -22 -33 -20 -24 3 -28 1 -17 -9 6 -7 12 -20 12 -28 0 -9 -6 -7 -20 9 l-19
22 -12 -26 c-13 -28 -34 -34 -43 -13 -3 6 -4 -4 -1 -23 2 -19 0 -42 -5 -50 -8
-12 -10 -12 -11 5 0 14 -3 11 -10 -10 -5 -16 -6 -38 -3 -47 3 -10 -1 -28 -8
-40 -7 -13 -13 -25 -14 -28 0 -3 -9 -23 -18 -44 -10 -22 -18 -54 -19 -72 -1
-17 -6 -30 -11 -27 -5 4 -7 -6 -4 -21 3 -14 1 -26 -3 -26 -5 0 -9 -8 -9 -17 0
-15 -2 -16 -10 -3 -11 16 -11 17 -15 -40 -1 -14 -10 -43 -20 -65 -10 -22 -19
-56 -20 -75 -2 -37 -59 -262 -74 -295 -5 -11 -21 -60 -36 -110 -15 -49 -33
-108 -40 -130 -7 -22 -32 -107 -55 -190 -24 -82 -56 -190 -71 -238 -16 -48
-31 -100 -34 -116 -2 -15 -12 -47 -20 -72 -20 -55 -194 -631 -249 -824 -10
-33 -22 -71 -27 -85 -5 -14 -29 -95 -53 -180 -24 -85 -61 -211 -81 -280 -59
-197 -173 -586 -201 -685 -42 -148 -102 -352 -145 -490 -22 -71 -49 -161 -60
-200 -12 -38 -27 -88 -34 -110 -7 -22 -31 -103 -54 -180 -22 -77 -59 -203 -81
-280 -23 -77 -64 -216 -92 -310 -58 -197 -95 -324 -133 -450 -15 -49 -42 -142
-60 -205 -47 -162 -110 -373 -133 -450 -11 -36 -32 -108 -47 -160 -15 -52 -44
-151 -66 -220 -21 -69 -63 -210 -93 -315 -30 -104 -65 -226 -79 -270 -31 -102
-153 -521 -209 -718 -17 -59 -33 -106 -35 -103 -2 2 2 28 10 57 19 69 111 390
142 494 34 113 71 240 112 385 19 69 66 233 104 365 171 586 232 798 266 910
19 66 61 210 93 320 91 316 265 909 340 1160 23 77 56 192 75 255 18 63 64
221 103 350 38 129 89 300 112 380 23 80 61 213 86 295 38 131 113 389 189
652 45 154 177 598 227 763 28 91 55 181 60 200 5 19 32 109 60 200 51 169 89
301 293 1010 64 223 133 446 154 495 154 376 476 602 841 591 94 -4 139 -11
243 -40z m254 8 c-3 -3 -12 -4 -19 -1 -8 3 -5 6 6 6 11 1 17 -2 13 -5z m50
-10 c-3 -3 -12 -4 -19 -1 -8 3 -5 6 6 6 11 1 17 -2 13 -5z m-610 -466 c15 -12
17 -48 3 -48 -5 0 -10 -15 -10 -34 0 -19 -3 -41 -6 -50 -8 -22 -57 -20 -85 3
l-24 20 43 -6 c33 -4 42 -3 42 9 0 9 -10 22 -22 30 -27 18 -16 40 17 32 20 -5
23 -3 18 15 -3 11 -14 23 -24 26 -10 4 -19 11 -19 17 0 12 48 2 67 -14z m128
-24 c25 -10 35 -47 24 -88 -12 -44 -33 -66 -63 -66 -38 0 -60 33 -53 81 8 64
43 91 92 73z m151 -55 c4 -6 -1 -9 -13 -7 -11 2 -28 -4 -38 -12 -17 -14 -17
-14 -4 8 15 23 43 29 55 11z m106 -26 c10 -9 18 -24 18 -33 0 -18 -35 -53 -62
-63 -26 -9 -22 -26 7 -33 38 -9 31 -27 -7 -19 -48 11 -78 23 -78 33 0 5 22 19
50 32 50 24 71 53 51 73 -8 8 -19 6 -41 -6 -29 -18 -30 -18 -30 2 0 33 60 43
92 14z m-122 -24 c0 -5 -4 -9 -10 -9 -5 0 -10 7 -10 16 0 8 5 12 10 9 6 -3 10
-10 10 -16z m248 -15 c49 -34 12 -149 -46 -142 -57 7 -66 84 -17 134 28 28 33
29 63 8z m-279 -30 c10 -3 11 -7 1 -19 -10 -13 -15 -12 -36 3 -39 28 -26 35
35 16z m-999 -54 c0 -5 -4 -10 -10 -10 -5 0 -10 5 -10 10 0 6 5 10 10 10 6 0
10 -4 10 -10z m5755 -698 c-3 -3 -11 0 -18 7 -9 10 -8 11 6 5 10 -3 15 -9 12
-12z m-999 -224 c-2 -7 -15 -43 -26 -80 -12 -38 -26 -68 -31 -68 -12 0 -11 9
6 66 19 63 19 63 -7 56 -20 -5 -21 -3 -10 11 12 14 26 19 65 26 5 0 6 -5 3
-11z m164 -53 c23 -25 24 -27 8 -58 -9 -18 -19 -44 -22 -59 -5 -24 -11 -28
-40 -28 -35 0 -59 20 -70 58 -4 12 -15 22 -26 22 -10 0 -22 5 -25 10 -3 6 1
10 10 10 29 0 53 -19 64 -50 9 -26 15 -31 38 -28 40 4 43 34 4 43 -28 6 -31
10 -31 44 0 64 46 82 90 36z m185 -45 c-4 -6 -23 -19 -44 -29 -20 -11 -44 -27
-52 -37 -13 -15 -12 -16 11 -9 48 17 75 12 78 -13 4 -27 -22 -72 -42 -72 -8 0
-26 15 -40 33 -15 17 -31 38 -36 44 -8 9 1 20 32 39 24 15 52 33 63 40 24 16
38 18 30 4z m354 -91 c79 -24 140 -44 135 -46 -7 -2 -226 59 -294 83 -12 4
-21 -15 -39 -81 -13 -47 -22 -88 -19 -90 2 -2 15 -8 28 -14 14 -5 18 -10 9
-10 -8 -1 -24 5 -35 13 -18 14 -18 16 -2 78 26 101 36 121 56 115 9 -3 82 -25
161 -48z m-102 5 c22 -6 24 -10 18 -43 -10 -54 -16 -59 -52 -49 -29 8 -33 13
-33 42 0 47 10 68 27 62 8 -4 26 -9 40 -12z m334 -93 c36 -37 39 -85 7 -127
-12 -16 -27 -32 -33 -36 -16 -12 -67 -8 -105 8 -22 9 -25 12 -10 9 84 -17 95
-17 122 5 28 22 45 74 34 107 -3 10 -21 28 -38 41 -18 12 -27 22 -20 22 8 0
27 -13 43 -29z m-337 -83 c22 -6 45 -15 51 -20 5 -4 -15 -1 -45 8 -53 15 -72
24 -55 24 4 0 26 -5 49 -12z m-3539 -58 c8 -12 75 -310 75 -333 0 -12 -6 -17
-17 -15 -14 2 -27 38 -59 168 -22 91 -39 171 -36 178 5 14 28 16 37 2z m444
-34 c7 -29 23 -54 47 -75 20 -18 35 -34 33 -36 -2 -2 -29 -15 -59 -29 -30 -14
-65 -33 -77 -42 -22 -16 -23 -16 -23 7 0 37 -53 106 -93 123 -20 8 15 26 52
26 26 0 41 8 65 35 17 19 34 35 37 35 4 0 12 -20 18 -44z m677 -41 c71 -31
128 -86 161 -153 24 -48 28 -69 28 -137 -1 -56 -6 -90 -18 -112 -18 -33 -31
-45 -21 -19 8 20 -44 118 -58 110 -6 -4 -8 -3 -5 3 8 13 -29 47 -42 38 -6 -3
-9 0 -5 8 6 17 -42 51 -62 43 -9 -3 -12 -1 -9 4 10 16 -91 58 -171 71 -69 12
-90 10 -203 -18 -22 -5 -22 -4 -11 18 79 151 260 214 416 144z m-1421 -216
c51 -101 61 -139 37 -139 -5 0 -15 12 -23 28 -7 15 -35 66 -62 114 -27 48 -46
92 -42 98 16 26 37 2 90 -101z m1931 66 c3 -8 -16 -54 -42 -102 -26 -49 -59
-110 -73 -137 -27 -50 -46 -65 -61 -50 -6 6 4 35 25 74 20 36 54 102 77 148
41 79 62 99 74 67z m-2230 -61 c33 -22 54 -64 54 -109 0 -36 8 -43 28 -23 20
20 98 15 128 -8 53 -39 67 -68 68 -139 l1 -66 40 6 c22 4 92 17 155 30 248 52
431 69 622 59 l116 -7 42 -59 c45 -65 94 -104 179 -145 48 -23 69 -27 146 -28
81 0 97 3 161 34 l71 33 44 -23 c176 -89 349 -218 515 -383 143 -143 227 -248
310 -389 58 -98 64 -113 37 -102 -10 4 -51 15 -92 25 -61 15 -80 25 -120 63
-25 24 -56 50 -68 56 -27 14 -130 15 -138 1 -9 -15 -35 -12 -35 3 0 7 -13 26
-29 41 -34 33 -97 44 -141 26 -33 -14 -40 -30 -12 -30 27 0 99 -50 111 -77 6
-13 11 -32 11 -43 0 -37 12 -50 44 -50 20 0 35 7 43 19 16 26 77 44 118 37 45
-9 95 -51 95 -81 0 -33 12 -39 140 -75 151 -43 156 -45 178 -99 25 -59 45
-121 40 -126 -9 -10 -238 -95 -254 -95 -10 0 -104 30 -209 66 -104 36 -224 77
-265 91 -89 30 -124 55 -69 49 19 -3 70 -14 114 -25 97 -26 127 -23 61 7 -39
18 -47 25 -41 39 31 73 30 72 5 119 -28 54 -55 74 -109 81 -38 5 -101 -19
-101 -39 0 -4 17 -15 37 -23 72 -30 92 -73 57 -123 -19 -28 -30 -28 -37 0 -4
12 -9 19 -13 15 -4 -4 -13 -2 -20 4 -8 6 -20 9 -29 5 -8 -3 -14 -2 -14 2 3 19
-2 25 -11 12 -8 -12 -10 -12 -10 5 0 16 -2 17 -10 5 -7 -12 -12 -11 -31 5 -12
11 -19 14 -15 8 5 -9 2 -11 -8 -7 -9 3 -16 14 -16 23 0 14 -2 14 -10 1 -8 -12
-10 -12 -11 5 0 11 -3 14 -6 7 -2 -6 -10 -9 -16 -5 -12 7 -18 8 -74 14 -18 2
-33 7 -33 12 0 5 -7 7 -15 3 -8 -3 -14 -1 -12 5 1 6 -7 16 -18 22 -11 7 -23
16 -27 21 -3 5 -18 2 -33 -8 -15 -10 -31 -14 -35 -9 -10 12 -104 191 -199 381
l-82 163 -37 -22 c-20 -13 -93 -62 -162 -110 -69 -47 -138 -94 -155 -103 -16
-9 -64 -41 -105 -71 -111 -81 -107 -80 -122 -48 -7 16 -23 32 -36 38 -12 5
-20 16 -17 22 2 7 0 13 -5 13 -4 0 -11 -13 -15 -29 -4 -20 -17 -34 -43 -47
-20 -10 -48 -28 -61 -39 -13 -11 -21 -14 -16 -6 6 11 4 13 -10 8 -9 -4 -24 -2
-31 4 -11 9 -14 8 -14 -5 0 -9 -8 -16 -17 -16 -12 0 -14 -3 -6 -8 8 -5 9 -13
3 -22 -8 -12 -10 -12 -10 -1 0 7 -6 11 -14 8 -11 -4 -13 -1 -10 11 5 13 4 14
-4 4 -8 -12 -13 -12 -32 0 -18 10 -24 10 -27 1 -7 -20 -23 -15 -33 10 -6 15
-9 17 -9 6 -1 -9 -8 -22 -16 -29 -13 -11 -14 -10 -9 4 3 9 1 16 -5 16 -6 0
-11 -5 -11 -11 0 -8 -5 -8 -15 1 -8 7 -15 21 -15 31 0 19 -17 35 -28 24 -3 -3
-2 -9 4 -13 16 -10 28 -52 15 -52 -6 0 -10 5 -8 12 1 7 -14 15 -36 18 -20 4
-40 10 -44 14 -4 3 -6 30 -4 59 1 39 -4 64 -22 100 -30 59 -26 59 108 11 140
-51 295 -105 326 -114 25 -7 26 -6 20 19 -7 26 -45 49 -155 97 -28 12 -35 18
-25 25 10 6 -1 15 -39 31 -44 19 -51 26 -46 43 34 112 27 156 -32 202 -71 54
-141 48 -250 -22 -68 -44 -59 -55 25 -31 57 16 91 13 140 -13 24 -14 30 -75 8
-105 -12 -16 -17 -16 -97 10 -47 15 -100 29 -119 31 -19 2 -42 8 -52 13 -10 6
-33 10 -51 10 -26 0 -30 3 -18 11 12 9 12 10 -3 5 -10 -3 -23 -6 -28 -6 -6 0
-8 -4 -5 -9 12 -19 -22 -17 -109 7 -49 14 -105 27 -122 30 -35 4 -42 18 -19
36 92 73 185 139 304 216 129 82 147 91 177 86 19 -4 140 -42 270 -85 l237
-79 19 45 c11 25 18 47 17 48 -7 4 -380 132 -528 181 -266 87 -370 122 -448
152 -69 27 -71 29 -54 46 22 19 113 39 191 41 49 1 54 3 66 31 28 67 113 96
171 58z m1548 -39 c32 -9 71 -25 87 -36 16 -11 29 -18 29 -14 0 3 22 -19 49
-50 71 -81 101 -151 78 -182 -15 -21 -25 -15 -46 25 -27 52 -101 119 -169 150
-52 25 -68 27 -180 27 l-123 0 3 40 c3 37 6 40 38 46 66 12 176 9 234 -6z
m-2322 -133 c29 -17 58 -67 58 -100 0 -14 9 -21 33 -26 107 -20 150 -128 75
-191 -46 -39 -111 -31 -158 19 -21 21 -34 26 -76 26 -45 0 -56 4 -84 33 -64
64 -75 125 -35 194 14 23 27 43 28 43 1 0 20 7 42 14 43 16 74 12 117 -12z
m3321 -44 c-15 -33 -202 -228 -218 -228 -23 0 -26 16 -7 37 40 46 169 189 190
211 29 30 52 17 35 -20z m-987 -28 c22 -13 56 -41 78 -62 31 -32 36 -41 26
-53 -18 -21 -45 -19 -104 9 -28 14 -80 36 -116 51 -35 14 -80 40 -98 58 l-33
32 48 5 c63 7 151 -11 199 -40z m-2633 -289 c51 -77 292 -363 431 -511 34 -36
128 -137 211 -225 82 -88 206 -218 274 -290 177 -184 292 -306 317 -335 20
-24 21 -29 10 -98 l-11 -73 -167 100 c-485 290 -855 583 -1026 811 -95 128
-149 295 -138 427 9 103 45 233 64 233 5 0 21 -18 35 -39z m3647 5 c0 -7 -9
-30 -19 -51 -20 -41 -18 -58 8 -89 15 -18 15 -18 -9 -11 -52 15 -65 67 -30
120 11 17 20 38 20 49 0 15 3 16 15 6 8 -7 15 -18 15 -24z m215 -15 c3 -5 -12
-15 -32 -22 -21 -6 -44 -18 -51 -26 -20 -19 -31 -16 -27 8 3 12 6 23 7 24 31
24 92 33 103 16z m-4146 -194 c13 -34 43 -102 66 -152 24 -49 39 -91 34 -93
-13 -5 -57 51 -112 141 -48 79 -49 80 -37 123 7 24 15 44 19 44 3 0 17 -28 30
-63z m4339 -105 c5 -15 -59 -54 -78 -46 -8 3 -11 2 -7 -2 9 -10 -108 -74 -134
-74 -18 0 -19 2 -9 15 14 17 35 21 25 5 -3 -6 1 -7 9 -4 9 3 14 10 11 14 -8
12 10 26 90 70 71 40 86 43 93 22z m-3343 -53 c315 -96 335 -102 365 -120 31
-20 40 -50 27 -91 -20 -62 -91 -73 -209 -32 -40 14 -117 38 -170 54 -113 34
-132 42 -152 71 -8 12 -38 46 -67 76 l-52 54 23 24 c13 14 26 25 29 25 3 0 96
-27 206 -61z m1785 -349 c56 -107 107 -201 112 -207 8 -10 17 -9 40 3 16 9 31
14 33 12 4 -5 198 -381 225 -435 14 -29 29 -53 34 -53 6 0 22 12 38 27 l27 26
21 -24 c11 -13 27 -37 36 -53 13 -24 14 -31 2 -41 -14 -14 -150 -75 -165 -75
-5 0 -29 -10 -53 -21 -24 -12 -54 -21 -67 -21 -12 0 -20 -4 -18 -8 8 -13 -26
-20 -46 -10 -13 8 -25 7 -39 0 -21 -11 -24 -8 -21 23 2 11 -5 17 -18 17 -12 0
-21 4 -21 9 0 17 43 -2 47 -21 3 -10 9 -18 13 -18 5 0 6 9 3 20 -3 11 0 20 6
20 6 0 11 -5 11 -12 0 -6 2 -9 5 -6 11 11 -8 39 -23 33 -19 -7 -52 3 -52 16 0
6 7 6 18 1 22 -12 41 -5 64 22 23 28 22 48 -3 79 -17 22 -27 26 -62 24 -23 -1
-49 -8 -57 -16 -12 -12 -11 -13 9 -6 21 6 22 5 10 -17 -7 -14 -14 -18 -17 -10
-5 17 -22 15 -22 -3 0 -23 -20 -18 -21 5 -1 11 -2 26 -3 33 -1 6 -14 12 -29
12 -15 -1 -27 5 -27 12 0 8 7 10 18 6 14 -6 15 -4 5 9 -7 8 -9 18 -5 22 4 4 0
6 -8 4 -8 -2 -14 3 -13 10 2 6 -4 12 -12 12 -8 0 -15 5 -15 10 0 6 -8 10 -17
10 -16 -1 -16 -2 1 -15 22 -17 17 -29 -8 -19 -9 3 -16 12 -16 20 0 8 -4 14
-10 14 -5 0 -7 7 -3 17 5 13 2 15 -16 10 -15 -4 -21 -2 -18 6 3 7 -6 13 -19
13 -13 1 -24 -2 -24 -8 0 -5 5 -6 11 -2 7 4 10 1 7 -6 -2 -7 -12 -14 -22 -16
-14 -2 -17 2 -12 24 5 22 4 24 -4 10 -6 -9 -17 -15 -25 -12 -8 4 -12 10 -9 15
3 6 -2 21 -10 34 -9 14 -13 25 -8 25 8 0 25 -29 35 -60 3 -8 6 4 6 26 1 26 -5
46 -14 54 -10 9 -15 9 -15 1 0 -18 -23 -12 -53 15 -28 24 -28 25 -10 42 10 9
14 14 8 10 -8 -5 -11 1 -9 20 10 121 19 187 34 247 10 38 15 75 13 82 -15 39
-55 -11 -82 -102 -14 -46 -61 -165 -71 -180 -4 -5 -10 -22 -14 -37 -5 -23 -14
-28 -60 -38 -36 -7 -67 -22 -94 -46 -37 -31 -44 -34 -74 -25 -18 5 -25 10 -15
10 9 1 17 6 17 11 0 12 -37 13 -44 1 -8 -12 -69 -6 -74 8 -2 6 6 11 18 11 12
0 19 4 15 9 -6 11 -70 9 -81 -2 -4 -4 1 -7 10 -7 32 0 11 -24 -25 -28 -19 -2
-38 -8 -44 -13 -6 -6 3 -7 24 -3 26 5 33 4 29 -6 -2 -8 -11 -15 -19 -18 -11
-3 -11 -2 1 7 13 9 13 11 -2 11 -9 0 -21 -8 -27 -17 -8 -15 -13 -16 -30 -5
-13 7 -21 8 -21 2 0 -5 5 -10 10 -10 19 0 10 -27 -12 -39 -18 -9 -19 -10 -3
-6 16 5 15 0 -10 -27 -17 -18 -31 -34 -31 -36 -1 -2 -1 11 0 27 1 17 7 36 14
43 18 18 15 34 -8 34 -22 0 -27 -13 -33 -81 -3 -34 -4 -32 -5 13 -1 29 5 68
12 87 8 19 12 35 8 35 -4 0 -12 10 -17 22 -23 52 -109 42 -129 -13 -7 -21 -5
-33 12 -56 20 -28 20 -29 2 -41 -15 -9 -22 -8 -35 5 -16 15 -19 15 -44 0 -27
-16 -29 -15 -54 11 -15 16 -27 34 -27 42 0 7 -3 10 -7 7 -6 -7 -153 141 -153
154 0 4 59 47 131 95 109 75 132 86 139 73 5 -9 17 -26 27 -38 l18 -22 159
106 c87 59 164 109 172 112 7 3 22 -12 36 -36 13 -23 26 -41 30 -41 4 0 22 13
40 29 30 26 250 180 428 299 l75 50 31 -56 c17 -32 77 -145 134 -252z m-2765
-180 c37 -69 95 -166 130 -215 35 -49 62 -92 59 -96 -2 -4 1 -11 7 -15 8 -5
10 -2 5 7 -4 8 2 3 13 -11 11 -14 31 -35 43 -48 l23 -23 -40 22 c-22 13 -42
26 -45 29 -3 3 -11 6 -19 8 -35 8 -68 42 -64 64 3 16 -4 31 -22 48 -26 25 -35
22 -48 -15 -10 -27 -187 128 -216 189 -44 91 -63 277 -40 387 l11 51 69 -128
c37 -71 98 -185 134 -254z m4465 341 c66 -46 77 -143 21 -193 -126 -113 -297
60 -179 181 42 43 105 48 158 12z m-4279 -98 c219 -303 655 -633 1196 -907
l113 -57 -6 -62 c-8 -83 -9 -86 -36 -80 -80 18 -402 123 -502 164 -492 200
-856 575 -856 884 0 41 18 145 25 145 1 0 31 -39 66 -87z m960 -33 c79 -28
177 -60 218 -71 88 -25 142 -49 135 -60 -10 -16 -105 -57 -100 -43 3 8 0 11
-10 7 -8 -3 -21 0 -28 6 -9 8 -17 8 -20 2 -3 -5 -3 -11 1 -14 9 -5 -3 -2 -37
7 -19 6 -21 5 -10 -3 11 -8 12 -11 2 -11 -7 0 -11 -4 -7 -9 3 -5 1 -12 -4 -16
-6 -3 -8 4 -6 16 3 15 0 19 -10 15 -8 -3 -15 -1 -15 3 0 5 6 11 13 14 6 2 8 8
4 13 -5 5 -16 -1 -27 -13 -9 -12 -20 -19 -24 -16 -3 3 0 13 7 21 10 13 9 15
-6 9 -10 -4 -21 -7 -23 -7 -3 0 -2 -4 1 -10 3 -5 1 -10 -5 -10 -7 0 -9 8 -5
20 4 13 2 21 -7 22 -7 0 -18 2 -25 2 -15 2 -45 29 -115 109 -33 37 -56 67 -51
67 6 0 75 -23 154 -50z m373 -29 c11 -4 15 -10 10 -14 -10 -6 -74 42 -74 56 0
4 10 -2 23 -14 12 -11 31 -24 41 -28z m72 -18 c-10 -10 -19 5 -10 18 6 11 8
11 12 0 2 -7 1 -15 -2 -18z m127 -8 c-3 -9 -8 -14 -10 -11 -3 3 -2 9 2 15 9
16 15 13 8 -4z m3174 -262 c-59 -309 -280 -515 -696 -647 -258 -82 -803 -182
-1154 -212 l-79 -7 20 39 c11 21 25 58 32 80 l12 41 212 86 c116 47 368 149
561 227 392 159 477 194 685 287 163 73 380 180 395 194 21 21 26 -12 12 -88z
m-2447 20 c0 -24 -34 -123 -43 -123 -12 0 -2 82 13 110 10 19 30 28 30 13z
m1025 -144 c187 -62 347 -114 355 -116 15 -5 -16 -22 -117 -62 -60 -24 -78
-27 -43 -5 l25 15 -25 -7 c-14 -4 -27 -11 -28 -15 -2 -5 -8 -7 -13 -3 -5 3 -9
-1 -10 -8 -1 -7 -5 -2 -9 12 -8 24 -8 24 -9 3 -1 -13 -4 -23 -8 -24 -77 -6
-81 -5 -76 8 6 16 5 16 38 3 l26 -10 -18 25 c-10 13 -24 25 -30 25 -13 0 -17
12 -14 38 1 6 -3 12 -9 12 -6 0 -8 -5 -4 -12 5 -8 2 -9 -9 -5 -10 4 -17 2 -17
-5 0 -7 -5 -6 -15 2 -12 10 -18 10 -32 -1 -9 -8 -14 -9 -11 -4 3 6 2 19 -3 30
-6 17 -8 17 -8 3 -1 -10 -7 -18 -15 -18 -8 0 -16 -6 -19 -14 -3 -8 -15 -14
-26 -13 -11 1 -18 3 -16 5 2 2 -2 10 -8 17 -8 9 -16 10 -24 3 -9 -7 -13 -7
-13 0 0 6 6 12 13 15 8 3 5 12 -12 30 -25 27 -54 27 -43 -1 5 -14 4 -15 -10
-2 -14 13 -14 17 -2 31 8 8 14 20 14 25 0 5 -4 3 -9 -5 -20 -32 -71 -10 -57
24 3 9 2 13 -4 10 -8 -5 -60 82 -60 100 0 10 19 4 355 -106z m-3801 -18 c14
-27 14 -29 -11 -40 -14 -6 -27 -10 -28 -9 -1 2 -7 13 -13 24 -10 18 -8 24 11
37 12 9 23 16 24 16 1 1 9 -12 17 -28z m433 -38 c-12 -11 -57 26 -51 42 5 13
11 11 32 -10 14 -14 22 -28 19 -32z m2309 -2 c44 -20 74 -54 74 -84 0 -18 -2
-18 -23 3 -29 28 -117 59 -179 62 -48 3 -49 3 -27 21 28 23 102 22 155 -2z
m868 -30 c7 -11 -3 -41 -14 -41 -4 0 -7 11 -6 25 1 25 10 32 20 16z m1772 -51
c-6 -46 -40 -121 -58 -128 -5 -2 -6 -8 -3 -13 3 -5 -1 -21 -9 -36 l-16 -28 3
25 c1 18 -3 25 -15 24 -10 -1 -18 2 -18 7 0 4 8 13 18 18 9 6 14 11 10 11 -5
0 -46 -20 -93 -45 -77 -41 -112 -49 -103 -25 3 8 279 239 287 240 2 0 1 -23
-3 -50z m-3289 8 c-3 -8 -6 -5 -6 6 -1 11 2 17 5 13 3 -3 4 -12 1 -19z m-17
-5 c0 -15 -2 -16 -10 -3 -8 12 -10 10 -11 -10 -1 -17 -3 -20 -6 -7 -2 9 -9 15
-14 12 -5 -4 -9 1 -9 9 0 10 9 16 25 16 17 0 25 -5 25 -17z m327 6 c39 -7 67
-17 70 -26 12 -30 -13 -33 -93 -13 -109 29 -106 28 -134 18 l-25 -8 25 20 c29
22 67 25 157 9z m-429 -34 c-3 -3 -9 2 -12 12 -6 14 -5 15 5 6 7 -7 10 -15 7
-18z m36 10 c-4 -9 0 -15 10 -15 10 0 16 -8 15 -22 0 -13 -3 -17 -6 -10 -2 6
-11 12 -19 12 -8 0 -14 10 -14 25 0 14 4 25 10 25 5 0 7 -7 4 -15z m652 -26
c121 -35 147 -46 139 -59 -3 -5 -54 4 -113 20 -59 15 -119 31 -134 34 -28 6
-40 36 -14 36 7 0 62 -14 122 -31z m1157 18 c3 -8 2 -20 -3 -26 -5 -9 -7 -4
-7 13 0 29 2 32 10 13z m-852 -30 c-16 -16 -26 0 -10 19 9 11 15 12 17 4 2 -6
-1 -17 -7 -23z m-54 1 c-3 -8 -6 -5 -6 6 -1 11 2 17 5 13 3 -3 4 -12 1 -19z
m-2656 -63 c23 -16 52 -45 65 -65 29 -44 54 -139 54 -206 0 -66 7 -84 32 -84
32 0 139 -61 183 -105 51 -51 96 -128 84 -146 -5 -8 -9 -12 -10 -9 -6 34 -9
43 -15 48 -4 4 -4 -1 -1 -11 6 -15 3 -16 -12 -7 -14 7 -21 6 -23 -2 -5 -14
-58 19 -58 37 0 7 11 20 25 29 23 15 25 15 35 -3 5 -11 10 -28 10 -37 0 -13 3
-15 11 -7 8 8 7 17 -3 34 -24 42 -31 47 -46 32 -7 -7 -19 -13 -25 -13 -7 0 -4
5 6 11 9 5 17 15 17 21 0 7 -4 7 -12 1 -7 -6 -20 -10 -28 -10 -8 0 -28 -4 -45
-8 -23 -5 -26 -4 -15 4 8 6 23 11 33 11 9 0 17 5 17 11 0 6 -9 8 -20 4 -12 -4
-20 -2 -20 5 0 7 -8 9 -21 5 -16 -5 -19 -4 -14 5 5 9 4 11 -4 6 -6 -4 -18 0
-27 9 -25 25 -29 9 -5 -23 25 -36 26 -40 4 -65 -17 -19 -17 -19 4 -13 19 6 22
4 16 -11 -3 -10 -3 -15 2 -11 4 4 14 3 21 -3 7 -6 19 -7 25 -3 9 5 5 10 -10
16 -12 4 -19 12 -16 18 3 5 1 10 -4 10 -6 0 -11 3 -11 8 0 4 20 8 45 8 24 1
42 -2 39 -7 -3 -5 -14 -9 -25 -9 -10 0 -19 -4 -19 -10 0 -5 10 -10 21 -10 17
0 19 -3 10 -14 -9 -10 -8 -15 4 -19 10 -5 13 -15 9 -37 -4 -19 -2 -30 4 -30 7
0 19 -15 28 -32 l16 -33 -31 35 c-16 19 -30 43 -31 54 0 12 -5 16 -16 12 -9
-3 -12 -2 -9 5 4 6 14 8 22 5 8 -3 11 -1 8 4 -3 6 -17 7 -31 4 -14 -4 -24 -2
-24 5 0 6 -7 11 -15 11 -43 0 -113 71 -106 107 1 8 -5 10 -16 6 -14 -5 -15 -3
-6 7 6 7 16 9 23 5 12 -7 34 -55 32 -67 -3 -12 26 -10 33 2 3 5 -3 17 -15 27
-11 10 -20 26 -20 36 0 10 -4 15 -10 12 -5 -3 -19 -1 -31 6 -12 6 -19 7 -15 1
3 -5 -1 -13 -9 -16 -9 -3 -18 1 -21 9 -4 8 -10 13 -14 10 -9 -6 -83 25 -88 37
-2 4 -10 4 -19 1 -12 -5 -14 -3 -8 7 6 10 4 12 -7 7 -19 -7 -234 55 -290 84
-21 11 -36 24 -33 29 3 5 0 8 -7 5 -37 -13 -66 156 -35 200 19 26 81 12 119
-26 33 -33 38 -35 38 -16 0 28 62 99 103 118 61 29 142 22 198 -16z m1949 20
c10 -12 10 -15 -4 -15 -9 0 -16 7 -16 15 0 8 2 15 4 15 2 0 9 -7 16 -15z
m1647 -1 c-3 -3 -12 -4 -19 -1 -8 3 -5 6 6 6 11 1 17 -2 13 -5z m-1364 -53
c106 -27 239 -62 297 -79 58 -17 124 -36 148 -42 47 -12 55 -34 19 -51 -19 -8
-34 -5 -80 15 -31 15 -94 35 -141 46 -47 12 -130 34 -183 50 -54 15 -119 31
-146 35 -26 4 -50 11 -53 16 -3 5 -18 9 -33 9 -29 0 -51 16 -51 37 0 20 16 17
223 -36z m451 17 c41 -13 106 -67 106 -87 0 -6 -18 0 -41 15 -23 14 -48 27
-58 29 -9 2 -29 8 -44 14 -37 14 -60 14 -51 -1 4 -7 3 -8 -4 -4 -7 4 -12 17
-12 30 0 39 -1 39 104 4z m866 26 c0 -8 -19 -13 -24 -6 -3 5 1 9 9 9 8 0 15
-2 15 -3z m-1660 -18 c0 -3 -4 -8 -10 -11 -5 -3 -10 -1 -10 4 0 6 5 11 10 11
6 0 10 -2 10 -4z m3113 -40 c4 -10 1 -13 -8 -9 -8 3 -12 9 -9 14 7 12 11 11
17 -5z m37 -5 c0 -6 -4 -13 -10 -16 -5 -3 -10 1 -10 9 0 9 5 16 10 16 6 0 10
-4 10 -9z m-70 -15 c0 -3 -4 -8 -10 -11 -5 -3 -10 -1 -10 4 0 6 5 11 10 11 6
0 10 -2 10 -4z m-2142 -41 c-3 -3 -9 2 -12 12 -6 14 -5 15 5 6 7 -7 10 -15 7
-18z m127 6 c3 -5 2 -12 -3 -15 -5 -3 -9 1 -9 9 0 17 3 19 12 6z m-2591 -76
c72 -19 184 -46 248 -59 65 -14 191 -44 280 -67 90 -22 218 -53 286 -69 68
-15 126 -31 129 -34 8 -8 -93 5 -237 29 -14 3 -56 7 -94 10 -38 2 -77 7 -87
10 -11 4 -19 2 -19 -4 0 -6 -5 -11 -11 -11 -5 0 -8 4 -5 9 8 12 -25 24 -36 13
-5 -5 -64 -8 -131 -6 -86 3 -118 1 -107 -6 17 -12 -101 -7 -135 6 -39 15 -95
54 -92 66 1 7 -7 12 -17 13 -20 0 -135 135 -115 135 6 0 70 -16 143 -35z
m4382 -27 c-17 -108 -116 -244 -240 -333 -288 -204 -777 -288 -1289 -220 -120
16 -257 42 -266 50 -4 5 46 121 60 139 5 5 86 12 181 17 286 13 685 69 933
130 229 57 453 146 575 228 25 16 47 30 49 30 2 1 1 -18 -3 -41z m244 38 c0
-3 -4 -8 -10 -11 -5 -3 -10 -1 -10 4 0 6 5 11 10 11 6 0 10 -2 10 -4z m-2715
-56 c11 -5 16 -9 10 -9 -5 -1 -11 -16 -12 -34 -1 -17 -22 -93 -46 -167 -24
-74 -50 -158 -57 -187 -8 -29 -18 -49 -23 -46 -6 3 -8 2 -4 -3 7 -12 -16 -115
-26 -115 -28 -1 -68 15 -64 25 9 23 84 270 121 396 20 69 39 131 41 138 5 14
30 15 60 2z m119 -45 c-4 -8 -2 -15 4 -15 6 0 12 6 15 13 3 8 8 9 16 1 8 -8 0
-46 -33 -150 -54 -170 -92 -295 -106 -350 -11 -46 -38 -65 -53 -38 -8 14 -11
14 -19 3 -8 -11 -9 -11 -5 1 6 22 35 24 40 3 4 -14 5 -13 6 5 1 16 -5 22 -20
22 -11 0 -17 5 -14 10 4 6 10 8 15 5 11 -7 20 36 13 64 -4 15 -2 22 4 18 6 -4
8 4 6 21 -4 22 -2 24 7 12 9 -12 11 -9 7 15 -3 17 -1 39 4 50 9 18 9 18 5 -2
-2 -13 -2 -23 0 -23 11 0 21 45 12 51 -10 7 9 90 37 159 7 19 16 52 20 73 3
20 10 37 15 37 6 0 9 3 9 8 -3 14 1 22 11 22 5 0 7 -7 4 -15z m2622 -90 c-21
-83 -123 -237 -211 -318 -58 -54 -170 -85 -400 -112 -77 -8 -148 -17 -158 -19
-9 -2 -15 0 -11 5 3 5 12 9 21 9 24 0 215 105 326 179 54 36 144 94 200 129
56 35 128 83 162 107 70 51 79 54 71 20z m-5416 -95 c74 -20 126 -103 137
-216 3 -35 10 -64 14 -64 5 0 9 -5 9 -11 0 -5 -6 -7 -12 -4 -7 4 -4 -1 6 -9
19 -15 18 -16 -13 -16 -23 0 -40 9 -62 32 -16 18 -29 35 -29 39 0 3 -9 16 -20
29 -11 13 -20 30 -20 39 0 31 -30 61 -59 61 -29 0 -41 -15 -41 -50 0 -20 -38
-34 -64 -24 -12 5 -16 20 -16 60 0 45 5 59 31 89 25 28 60 47 99 54 3 1 21 -4
40 -9z m2234 -23 c15 -24 10 -26 -184 -93 -283 -97 -271 -91 -285 -147 -24
-94 -53 -107 -297 -132 -75 -8 -142 -17 -150 -20 -7 -2 -32 -6 -55 -9 -23 -2
-47 -7 -52 -11 -6 -3 -19 -1 -28 4 -15 9 -14 10 11 11 16 0 26 3 23 7 -4 3 2
13 13 20 11 8 17 20 14 26 -5 8 -3 8 7 0 7 -7 18 -13 24 -13 5 0 3 5 -5 10 -9
6 -11 13 -5 18 24 17 65 113 71 164 l7 56 71 6 c39 4 118 9 175 11 70 3 187
22 354 55 138 28 253 53 256 55 8 9 24 0 35 -18z m-1601 -4 c-7 -2 -19 -2 -25
0 -7 3 -2 5 12 5 14 0 19 -2 13 -5z m587 -62 c14 -10 31 -34 37 -55 11 -30 10
-43 -3 -75 -17 -42 -42 -60 -55 -39 -6 9 -10 8 -15 -5 -4 -12 -16 -17 -43 -16
-27 1 -30 3 -11 6 49 9 40 19 -11 13 -36 -5 -55 -3 -64 7 -8 7 -17 13 -22 13
-23 0 -86 147 -70 165 6 6 54 9 121 7 87 -2 116 -7 136 -21z m-880 9 c20 -6
21 -8 5 -8 -11 0 -29 3 -40 8 -25 11 1 11 35 0z m17 -26 c-3 -3 -12 -4 -19 -1
-8 3 -5 6 6 6 11 1 17 -2 13 -5z m2043 -31 c-12 -67 -23 -78 -105 -102 -42
-13 -79 -21 -81 -18 -3 3 14 21 38 40 114 94 143 117 149 117 3 0 3 -17 -1
-37z m-1967 13 c16 -12 17 -19 7 -54 -6 -25 -17 -42 -28 -44 -12 -3 -9 -6 10
-9 19 -4 25 -2 21 7 -2 7 0 21 7 31 9 16 10 15 4 -6 -3 -13 -2 -21 3 -18 5 3
15 2 23 -4 13 -7 13 -9 0 -9 -13 0 -13 -1 0 -10 9 -5 19 -5 27 1 20 17 72 0
114 -38 40 -36 54 -67 65 -146 4 -31 12 -51 23 -54 47 -17 74 -80 52 -122 -11
-19 -9 -21 23 -21 88 0 210 -77 260 -163 22 -38 60 -147 53 -153 -6 -6 -102
17 -107 26 -3 5 -44 12 -90 16 -87 6 -129 17 -143 37 -6 8 -7 6 -3 -5 3 -12 0
-18 -9 -18 -8 0 -15 5 -15 10 0 6 -3 9 -7 9 -20 -3 -33 2 -33 14 0 6 -9 23
-20 37 -21 26 -26 45 -11 35 12 -7 24 12 16 25 -5 8 -11 8 -20 0 -9 -7 -16 -6
-26 7 -13 16 -12 17 4 4 9 -7 17 -9 17 -3 0 13 -25 33 -34 27 -3 -3 -2 0 3 6
5 6 8 17 7 23 -2 6 -1 8 1 4 8 -15 23 -8 23 10 0 10 12 29 27 42 l26 23 -61
25 c-62 26 -81 53 -46 66 9 4 14 13 10 21 -3 8 -1 15 3 15 8 0 9 28 2 76 -2
19 -63 84 -78 84 -8 0 -12 4 -8 10 6 10 -71 34 -84 25 -18 -10 -41 7 -41 31 0
16 -6 24 -17 25 -14 0 -15 2 -3 6 21 9 40 29 40 44 0 10 -3 10 -12 1 -18 -18
-28 -15 -28 8 0 12 10 24 23 30 l22 9 -24 0 c-13 1 -30 -7 -38 -16 -11 -14
-13 -14 -10 -3 3 13 42 40 57 40 3 -1 13 -7 23 -14z m-123 -8 c-19 -5 -38 -15
-42 -21 -5 -8 -8 -6 -8 5 0 19 14 26 55 26 l30 0 -35 -10z m5 -18 c3 -5 1 -10
-4 -10 -6 0 -11 5 -11 10 0 6 2 10 4 10 3 0 8 -4 11 -10z m495 -37 c0 -7 6
-16 13 -19 19 -7 18 -45 -1 -61 -16 -13 -15 -14 6 -10 20 5 22 1 22 -34 0 -22
-5 -39 -11 -39 -7 0 -9 10 -5 25 5 19 3 23 -8 19 -8 -3 -17 -12 -20 -20 -3 -9
-10 -12 -16 -9 -15 9 -12 25 5 25 8 0 15 7 15 15 0 8 -5 15 -12 15 -6 0 -3 7
8 15 19 14 18 15 -6 35 -14 11 -18 18 -8 14 15 -5 16 -3 5 20 -14 30 -27 34
-28 9 0 -14 -2 -15 -6 -3 -3 8 -11 18 -17 22 -6 4 -7 10 -3 15 5 4 12 1 17 -7
8 -12 10 -12 10 4 0 18 1 18 20 1 11 -10 20 -24 20 -32z m-836 22 c19 -14 18
-15 -11 -15 -18 0 -33 6 -37 15 -7 20 22 19 48 0z m762 -33 c7 -18 9 -30 4
-27 -14 8 -40 67 -29 63 6 -2 17 -18 25 -36z m-525 -23 c10 -7 6 -8 -13 -5
-21 4 -27 0 -33 -21 -3 -14 -8 -23 -11 -20 -3 3 2 22 12 42 11 23 20 32 24 25
4 -7 14 -16 21 -21z m139 21 c0 -5 -7 -10 -15 -10 -8 0 -15 5 -15 10 0 6 7 10
15 10 8 0 15 -4 15 -10z m-75 -20 c3 -6 -1 -7 -9 -4 -18 7 -21 14 -7 14 6 0
13 -4 16 -10z m2826 -16 c7 -9 83 -73 169 -142 85 -69 161 -132 168 -140 7
-10 12 -11 12 -4 0 15 92 -30 215 -105 50 -31 91 -57 93 -58 2 -2 -4 -24 -12
-49 -23 -69 -23 -233 1 -229 6 1 17 -5 25 -15 12 -15 11 -16 -4 -3 -25 19 -23
0 2 -27 12 -12 16 -22 9 -22 -6 0 -20 10 -30 22 -11 11 -19 17 -19 13 0 -5 10
-19 21 -31 17 -19 26 -21 41 -13 16 9 17 13 6 27 -12 15 -11 16 4 4 14 -11 15
-17 5 -33 -6 -10 -19 -19 -27 -19 -9 0 -60 29 -115 65 -55 36 -104 65 -108 65
-5 0 -5 5 -1 12 4 7 3 8 -4 4 -16 -10 -74 22 -66 36 4 7 3 8 -5 4 -17 -11
-146 63 -165 94 -20 35 -20 75 -1 130 8 23 12 47 8 54 -4 6 -72 84 -150 174
-79 90 -143 167 -143 172 0 10 29 29 46 30 6 0 18 -7 25 -16z m-217 -66 c24
-56 57 -150 53 -154 -5 -5 -56 63 -78 105 -14 27 -19 50 -15 66 9 35 19 31 40
-17z m-2664 7 c11 -13 10 -14 -4 -9 -9 3 -16 10 -16 15 0 13 6 11 20 -6z m260
-16 c0 -13 -50 -31 -67 -25 -24 9 -14 35 15 38 32 4 52 -1 52 -13z m310 -68
c0 -11 -4 -9 -15 5 -8 10 -14 28 -14 39 0 18 1 17 14 -5 8 -14 14 -31 15 -39z
m1310 52 c-1 -9 -261 -150 -325 -176 -213 -87 -309 -118 -363 -115 l-56 3 229
104 c317 143 516 214 515 184z m-1542 -25 c2 -9 -6 -18 -18 -21 -17 -4 -19 -3
-10 8 7 8 8 19 4 26 -4 7 -2 10 7 7 8 -3 15 -12 17 -20z m22 -27 c0 -13 -28
-22 -35 -11 -3 4 1 11 7 13 20 8 28 8 28 -2z m-210 -5 c0 -2 -8 -10 -17 -17
-16 -13 -17 -12 -4 4 13 16 21 21 21 13z m3390 -47 c142 -28 812 -180 900
-204 l45 -12 -55 -25 c-51 -23 -170 -58 -199 -58 -7 0 -9 5 -6 10 3 6 -5 10
-19 10 -34 0 -423 129 -513 171 -24 10 -49 19 -57 19 -24 0 -126 42 -121 50 3
4 -11 11 -31 15 -20 3 -50 12 -68 20 -17 7 -49 20 -71 29 l-40 16 45 -6 c25
-4 110 -19 190 -35z m-3580 -3 c65 -33 134 -97 161 -148 10 -21 19 -40 19 -43
0 -13 -54 -3 -66 13 -12 16 -13 16 -19 -1 -7 -17 -8 -17 -21 0 -20 26 -19 49
1 33 13 -11 14 -10 9 4 -7 18 -13 19 -33 7 -12 -8 -12 -13 2 -34 12 -18 13
-27 4 -36 -8 -8 -7 -11 4 -11 12 0 12 -2 0 -9 -17 -11 -41 -4 -41 12 0 6 3 7
7 4 3 -4 12 -2 20 5 11 9 11 13 0 27 -8 9 -17 31 -21 50 -10 53 -35 69 -143
94 -14 3 -23 0 -25 -10 -2 -12 -8 -11 -27 6 -21 19 -33 21 -85 16 -89 -8 -129
-16 -151 -31 -12 -9 -15 -14 -6 -14 8 0 12 -2 9 -5 -3 -3 -20 -2 -38 2 l-34 6
65 30 c111 52 175 67 269 64 69 -3 95 -9 140 -31z m2007 -84 c-121 -120 -245
-220 -315 -253 -46 -23 -64 -20 -38 6 19 19 21 46 4 63 -17 17 -42 15 -70 -8
-14 -10 -45 -24 -69 -29 -67 -15 -148 -45 -217 -80 -34 -17 -62 -30 -62 -27 0
8 148 114 225 162 87 54 190 101 415 189 80 31 165 64 190 75 25 10 46 17 47
16 2 -2 -48 -53 -110 -114z m-1577 88 c0 -5 -2 -10 -4 -10 -3 0 -8 5 -11 10
-3 6 -1 10 4 10 6 0 11 -4 11 -10z m460 -7 c-8 -3 -18 -11 -22 -17 -5 -7 -8
-6 -8 4 0 13 -1 13 -10 0 -8 -13 -10 -12 -10 3 0 13 8 17 33 16 17 0 25 -3 17
-6z m-630 -13 c0 -5 -4 -10 -10 -10 -5 0 -10 5 -10 10 0 6 5 10 10 10 6 0 10
-4 10 -10z m-623 -46 c-3 -3 -12 -4 -19 -1 -8 3 -5 6 6 6 11 1 17 -2 13 -5z
m328 -4 c3 -5 2 -10 -4 -10 -5 0 -13 5 -16 10 -3 6 -2 10 4 10 5 0 13 -4 16
-10z m5110 -33 c11 -17 21 -35 23 -39 2 -3 -6 -9 -16 -12 -11 -4 -30 -16 -43
-27 l-24 -20 -7 26 c-4 15 -14 35 -24 46 -15 17 -15 18 9 25 15 3 31 12 38 20
16 20 22 18 44 -19z m-5438 17 c-3 -3 -12 -4 -19 -1 -8 3 -5 6 6 6 11 1 17 -2
13 -5z m710 -24 c5 -14 6 -35 2 -45 -6 -16 -8 -13 -8 13 -1 34 -17 42 -40 20
-11 -10 -13 -10 -7 0 5 8 0 12 -13 12 -11 0 -25 -8 -30 -17 -6 -10 -11 -13
-11 -8 0 26 29 50 62 51 29 0 37 -4 45 -26z m-397 10 c0 -5 -7 -7 -15 -4 -8 4
-15 8 -15 10 0 2 7 4 15 4 8 0 15 -4 15 -10z m-215 -21 c5 -5 -6 -4 -25 2 -45
15 -54 24 -15 15 17 -4 34 -12 40 -17z m175 11 c0 -5 -7 -7 -15 -4 -8 4 -15 8
-15 10 0 2 7 4 15 4 8 0 15 -4 15 -10z m-135 -10 c3 -6 -1 -7 -9 -4 -18 7 -21
14 -7 14 6 0 13 -4 16 -10z m52 -6 c-3 -3 -12 -4 -19 -1 -8 3 -5 6 6 6 11 1
17 -2 13 -5z m2948 -222 c77 -95 155 -192 174 -215 18 -23 50 -76 71 -117 42
-85 93 -220 82 -219 -4 0 -32 34 -62 75 -30 42 -73 93 -96 113 -22 21 -38 43
-36 49 5 17 -40 52 -69 52 -34 0 -44 -24 -24 -63 8 -17 13 -32 11 -35 -12 -12
-64 64 -112 164 -41 86 -60 142 -84 250 -17 76 -33 148 -36 159 -4 15 1 12 18
-10 13 -16 86 -108 163 -203z m-2385 185 c0 -5 -4 -5 -10 -2 -5 3 -10 14 -10
23 0 15 2 15 10 2 5 -8 10 -19 10 -23z m2473 -26 c57 -54 215 -246 343 -416
103 -136 117 -158 87 -132 -11 9 -22 14 -26 11 -3 -3 -60 47 -126 112 -104
101 -137 141 -235 288 -62 94 -116 177 -120 183 -15 26 30 0 77 -46z m-2974
27 c22 -12 39 -23 37 -26 -2 -2 -17 3 -34 12 -16 8 -33 12 -37 8 -5 -4 -4 -1
0 7 6 10 4 13 -6 9 -8 -3 -23 -2 -34 3 -18 7 -17 8 7 8 14 1 44 -9 67 -21z
m2454 8 c81 -33 131 -120 147 -253 11 -101 31 -425 26 -430 -2 -2 -34 14 -71
36 -38 22 -81 43 -96 46 -16 4 -31 11 -35 16 -8 13 58 39 98 39 40 0 23 14
-37 31 -54 15 -65 26 -65 66 l0 34 -30 -21 c-17 -12 -37 -34 -45 -48 -29 -55
-25 -54 -110 -33 -44 11 -132 26 -197 32 l-118 12 57 81 c32 45 88 126 126
181 38 55 81 114 95 130 30 37 90 81 117 88 40 10 106 7 138 -7z m-2071 -38
c-7 -7 -12 -8 -12 -2 0 6 3 14 7 17 3 4 9 5 12 2 2 -3 -1 -11 -7 -17z m-282
-13 c14 -8 21 -14 15 -14 -5 0 -21 6 -35 14 -14 8 -20 14 -15 14 6 0 21 -6 35
-14z m344 4 c-2 -4 5 -11 17 -14 11 -4 18 -9 16 -12 -3 -2 -22 5 -44 16 -35
18 -36 20 -11 18 15 0 25 -4 22 -8z m-51 -92 c97 -57 149 -136 197 -297 35
-116 25 -215 -27 -272 -27 -30 -31 -21 -17 39 10 42 10 70 3 103 -14 68 -42
140 -53 140 -5 0 -6 3 -3 7 4 4 -5 12 -20 18 -64 26 -317 -20 -411 -76 -47
-27 -56 -24 -35 12 45 77 146 133 266 145 53 5 70 3 108 -15 24 -12 35 -15 25
-6 -11 8 -15 15 -9 15 6 0 13 7 17 15 7 19 -120 150 -155 160 -13 3 -37 11
-53 18 -26 10 -27 12 -10 19 36 15 132 1 177 -25z m4533 17 c79 -37 133 -135
120 -217 -6 -35 -5 -37 13 -27 28 15 77 12 111 -5 17 -9 30 -18 30 -21 0 -17
-44 -85 -68 -106 -50 -42 -88 -53 -141 -41 -105 25 -179 44 -231 59 -30 9 -71
19 -90 22 -19 2 -39 10 -43 16 -6 8 -10 8 -14 -1 -2 -7 -15 -13 -28 -13 -37 0
-141 -35 -169 -57 -20 -16 -42 -21 -112 -22 -98 -2 -158 -23 -208 -72 -20 -19
-40 -29 -60 -29 -17 0 -42 -3 -56 -5 -21 -5 -22 -4 -5 4 19 8 19 9 -5 13 -18
4 -13 6 16 7 24 0 41 6 42 14 1 6 4 26 8 43 3 18 1 42 -6 54 -10 19 -9 25 6
39 11 9 13 9 6 1 -14 -16 -16 -34 -3 -26 5 3 12 -10 15 -29 4 -19 11 -35 16
-35 13 0 13 17 -1 42 -9 18 -8 19 10 13 17 -5 21 -2 21 14 0 12 5 21 10 21 6
0 10 -9 10 -20 0 -23 18 -27 26 -5 7 18 41 20 47 3 2 -8 8 -9 13 -4 5 5 4 11
-3 13 -20 7 -15 23 7 23 11 0 20 -7 20 -16 0 -8 5 -12 10 -9 8 5 7 11 -1 21
-16 19 -4 30 16 14 10 -8 15 -9 15 -1 0 6 8 11 18 12 10 0 12 3 5 6 -7 2 -13
14 -13 24 0 11 4 18 9 14 17 -10 21 12 5 31 -9 10 -13 14 -11 9 3 -6 -6 -10
-21 -9 -15 1 -33 3 -40 3 -7 1 -10 6 -7 11 3 6 30 11 58 11 51 2 51 2 12 8
-30 5 -36 8 -22 14 23 9 183 29 261 32 57 2 59 3 96 51 38 50 93 94 140 113
39 15 128 13 166 -5z m-1062 -13 c38 -11 81 -29 97 -40 15 -12 34 -21 41 -21
7 0 28 -9 47 -21 l33 -20 -23 -26 c-44 -46 -83 -67 -135 -73 -31 -3 -50 -2
-47 3 3 5 -3 6 -14 3 -13 -4 -28 2 -46 18 -15 13 -35 27 -45 30 -46 15 -52 88
-11 141 24 30 17 29 103 6z m-2128 -68 c-10 -10 -19 5 -10 18 6 11 8 11 12 0
2 -7 1 -15 -2 -18z m-1573 -6 c18 -8 38 -21 44 -29 11 -13 7 -15 -35 -14 -26
1 -83 -2 -127 -7 l-80 -7 29 24 c51 43 115 55 169 33z m4037 -157 c12 -8 12
-10 -3 -16 -10 -4 -16 -13 -13 -20 9 -22 -12 -16 -25 7 -8 15 -8 19 0 15 6 -4
16 -4 22 0 8 4 7 9 -2 15 -8 5 -9 9 -4 9 6 0 17 -4 25 -10z m-2576 -25 c22
-17 29 -6 -94 -150 -137 -161 -246 -283 -349 -390 -54 -55 -164 -174 -246
-265 -196 -217 -218 -240 -230 -240 -10 0 -93 82 -108 107 -8 13 174 199 379
388 136 126 167 156 235 229 l54 59 -115 -77 c-63 -42 -139 -93 -169 -113 -30
-21 -86 -59 -125 -85 -143 -96 -327 -225 -352 -249 l-22 -20 -34 43 c-148 184
-152 190 -135 203 10 7 144 70 299 140 156 70 407 184 558 253 151 68 300 137
330 153 61 31 96 35 124 14z m2509 -7 c-4 -7 -8 -16 -8 -20 0 -3 -4 -10 -9
-15 -5 -5 -6 -3 -2 5 4 6 2 12 -4 12 -6 0 -15 -11 -20 -25 -11 -29 -20 -33
-20 -7 0 9 15 27 33 40 36 25 41 27 30 10z m117 -8 c0 -19 -11 -26 -23 -14 -8
8 3 34 14 34 5 0 9 -9 9 -20z m-3373 -109 c-7 -36 -18 -66 -25 -69 -16 -5 -9
46 16 123 21 65 27 32 9 -54z m3293 89 c8 -5 11 -12 8 -16 -4 -3 -14 1 -23 10
-18 17 -9 21 15 6z m-406 -42 c-4 -6 -3 -8 4 -4 6 3 23 1 39 -6 38 -17 39 -18
23 -28 -20 -13 -33 -12 -24 1 5 8 1 8 -14 0 -26 -14 -54 -15 -33 -2 11 7 10
11 -4 19 -18 9 -13 32 6 32 6 0 7 -5 3 -12z m266 -64 c0 -8 -4 -14 -9 -14 -6
0 -9 9 -8 19 1 22 17 18 17 -5z m-220 1 c9 -11 9 -15 1 -15 -7 0 -9 -5 -5 -12
4 -7 3 -8 -4 -4 -6 4 -8 14 -5 22 5 13 1 15 -18 9 -18 -5 -21 -4 -9 4 20 14
25 14 40 -4z m-1779 -5 c202 -21 413 -95 574 -203 73 -49 70 -46 63 -53 -3 -3
-52 17 -109 45 -200 96 -477 173 -669 187 -115 8 -137 17 -60 24 36 4 72 7 81
8 9 1 63 -3 120 -8z m-1671 -136 c-21 -80 -52 -148 -71 -160 -15 -9 -8 35 21
136 12 41 24 86 27 100 3 14 13 31 22 38 14 11 16 10 19 -12 2 -14 -6 -60 -18
-102z m3650 96 c0 -5 -5 -10 -11 -10 -5 0 -7 5 -4 10 3 6 8 10 11 10 2 0 4 -4
4 -10z m590 -10 c11 -8 7 -9 -15 -4 -37 8 -45 14 -19 14 10 0 26 -5 34 -10z
m87 -18 c8 -5 7 -12 -4 -27 -15 -20 -15 -20 -8 2 5 19 3 22 -11 16 -12 -4 -15
-3 -10 5 8 14 16 15 33 4z m-2846 -37 c125 -50 590 -176 792 -215 l57 -11 -6
-40 c-6 -38 -5 -39 31 -55 37 -15 37 -16 32 -59 -6 -43 -53 -171 -66 -179 -3
-3 6 32 21 77 15 45 27 93 27 107 0 14 -14 -15 -30 -64 -32 -94 -74 -170 -88
-161 -5 2 -8 -3 -7 -13 0 -10 -6 -16 -16 -16 -10 1 -16 -3 -15 -9 1 -6 -20
-26 -46 -44 -88 -59 -173 -69 -243 -28 -24 14 -47 33 -52 42 -6 9 -16 18 -23
19 -28 4 -84 33 -66 34 10 0 30 -8 44 -17 26 -17 27 -17 20 2 -4 11 8 2 26
-19 42 -49 62 -42 54 17 -3 23 -2 35 2 28 10 -16 21 -2 17 22 -3 25 -16 33
-17 11 0 -11 -11 4 -25 34 -13 28 -28 52 -34 52 -14 0 -13 -27 2 -32 9 -3 9
-12 -1 -36 -11 -25 -17 -30 -27 -21 -10 8 -11 15 -1 29 15 25 4 34 -22 18 -18
-11 -23 -11 -31 2 -5 8 -12 12 -15 8 -4 -3 -1 -15 6 -27 16 -25 5 -39 -15 -18
-8 8 -13 17 -10 20 3 3 1 8 -5 12 -6 3 -11 1 -11 -5 0 -6 -4 -8 -10 -5 -12 7
-14 26 -2 24 26 -4 38 5 49 38 9 29 9 40 0 45 -14 9 -73 13 -129 10 -28 -2
-38 2 -38 13 0 25 -71 19 -91 -8 l-16 -22 73 3 c69 3 72 3 67 -17 -3 -12 -9
-23 -13 -26 -5 -3 -6 -14 -3 -25 3 -11 9 -18 13 -15 5 3 19 1 32 -5 19 -8 15
-9 -23 -7 -39 2 -45 5 -41 21 4 16 0 18 -41 15 -32 -3 -48 0 -52 9 -3 7 -10
10 -16 6 -21 -13 35 -55 87 -64 l49 -8 -57 1 c-32 1 -56 6 -55 12 1 5 -11 11
-27 13 -23 3 -26 6 -15 14 10 7 10 9 1 6 -21 -6 -15 -22 10 -30 21 -5 21 -6 2
-7 -31 -2 -62 25 -47 40 9 9 9 16 0 30 -9 15 -8 21 7 32 16 12 16 14 2 26 -13
11 -17 10 -25 -12 -5 -14 -19 -34 -31 -45 -13 -12 -17 -22 -11 -26 5 -4 14 2
20 11 5 10 13 15 17 11 14 -15 -18 -37 -50 -35 -33 2 -43 22 -21 40 6 5 -1 5
-15 1 -45 -13 -53 -9 -82 37 -52 83 -57 223 -13 348 8 24 15 52 15 62 0 18 17
16 73 -6 14 -6 17 -1 17 30 0 37 0 37 34 31 18 -4 62 -18 97 -31z m2460 -15
c52 -15 69 -39 95 -141 30 -114 30 -119 -1 -119 -26 0 -33 -14 -13 -26 6 -4 8
-3 5 3 -4 6 4 10 21 10 23 0 21 -3 -21 -22 -26 -12 -55 -29 -65 -37 -9 -8 -23
-13 -29 -12 -7 1 -30 2 -50 3 -33 1 -35 2 -18 14 10 8 15 19 11 25 -3 6 -1 14
5 18 8 4 9 3 5 -4 -4 -7 -3 -12 3 -12 5 0 13 5 16 10 3 6 16 10 28 11 12 0 17
2 12 5 -6 2 -10 23 -9 47 1 39 1 40 -3 5 -3 -30 -9 -38 -24 -38 -16 0 -19 7
-19 40 0 33 -3 40 -19 40 -11 0 -23 5 -26 10 -4 6 11 10 38 10 44 0 45 1 49
34 2 22 0 32 -6 28 -6 -3 -26 -5 -44 -3 -18 1 -40 -3 -48 -9 -15 -13 -20 -35
-5 -26 5 4 4 -5 -2 -19 -7 -14 -18 -25 -25 -25 -7 0 -11 3 -9 8 3 4 -17 7 -44
6 -27 0 -50 -3 -52 -5 -1 -2 -11 -21 -21 -42 -20 -38 -20 -38 2 -59 14 -15 37
-23 77 -26 30 -2 58 -8 61 -13 3 -5 -1 -9 -8 -10 -7 -1 -29 -3 -48 -4 -19 -2
-53 3 -75 10 -22 7 -54 11 -70 9 -25 -4 -26 -3 -10 5 l20 10 -20 0 c-11 0 -26
-3 -33 -8 -18 -11 17 -21 76 -21 26 0 41 -4 37 -10 -3 -5 2 -10 12 -11 14 0
12 -3 -7 -11 -14 -6 -62 -29 -107 -51 -89 -42 -82 -42 -168 -7 -54 22 -291
133 -298 140 -5 4 14 24 41 43 109 81 216 103 322 67 36 -12 72 -28 81 -36 22
-20 29 -18 29 10 0 46 69 106 123 106 13 0 32 10 43 21 20 23 109 69 134 69 8
0 31 -5 51 -10z m359 -45 c0 -23 -6 -37 -19 -44 -16 -9 -17 -7 -13 17 5 24 6
25 13 7 6 -15 8 -11 8 18 1 47 11 49 11 2z m306 -4 c17 -10 41 -35 54 -56 30
-48 25 -133 -10 -170 -22 -24 -24 -24 -43 -8 -31 28 -40 52 -27 69 17 19 6 42
-25 54 -33 13 -72 -3 -86 -34 -13 -27 -64 -45 -148 -52 -54 -5 -55 -4 -31 10
17 10 20 15 9 16 -20 0 -21 30 -1 30 9 0 13 7 9 20 -3 11 -2 20 3 20 4 0 11
-12 15 -27 6 -27 6 -26 31 18 51 89 105 129 174 129 27 0 58 -8 76 -19z
m-4959 -48 c11 -21 18 -43 16 -50 -3 -7 1 -20 7 -30 9 -15 10 -14 5 7 -4 14
14 -6 38 -45 154 -243 189 -295 247 -372 224 -298 566 -600 865 -764 269 -148
517 -235 830 -290 174 -31 555 -34 735 -6 318 51 500 105 840 247 66 28 126
48 133 44 6 -4 8 -3 4 1 -12 14 123 74 147 66 17 -7 7 -17 -70 -74 -257 -191
-633 -342 -1019 -408 -154 -26 -485 -37 -646 -20 -482 50 -948 238 -1337 540
-123 96 -341 308 -435 424 -154 190 -276 405 -340 598 -53 161 -61 211 -20
132z m2972 -45 c21 -29 72 -101 113 -160 73 -107 167 -240 354 -503 151 -211
264 -374 264 -379 0 -8 -85 -45 -174 -77 -43 -16 -84 -33 -92 -40 -15 -13 -34
-4 -34 17 0 7 -15 47 -34 86 -19 40 -53 116 -76 168 -23 52 -59 133 -80 180
-20 47 -61 139 -89 205 -28 66 -65 147 -81 180 l-30 60 5 -45 c6 -46 28 -144
115 -505 28 -115 55 -232 61 -260 7 -27 17 -72 25 -99 7 -27 11 -53 8 -57 -5
-8 -135 -49 -157 -49 -9 0 -16 14 -20 43 -9 75 -57 398 -82 552 -13 83 -29
184 -35 225 -6 41 -24 164 -41 273 -37 251 -37 237 6 237 30 0 39 -7 74 -52z
m1934 -42 c29 -22 21 -38 -15 -31 -40 9 -42 10 -35 30 8 18 26 19 50 1z m-288
-36 c3 -5 1 -10 -4 -10 -6 0 -11 5 -11 10 0 6 2 10 4 10 3 0 8 -4 11 -10z
m-515 -10 c0 -5 -2 -10 -4 -10 -3 0 -8 5 -11 10 -3 6 -1 10 4 10 6 0 11 -4 11
-10z m20 -34 c0 -2 -7 -7 -16 -10 -8 -3 -12 -2 -9 4 6 10 25 14 25 6z m596
-109 c67 -34 154 -114 211 -194 51 -72 52 -92 2 -39 -18 19 -37 32 -42 29 -6
-3 -7 -1 -4 4 8 13 -12 30 -33 29 -10 -1 -14 -9 -12 -24 4 -27 -4 -27 -90 -3
-36 11 -70 16 -74 13 -4 -4 -4 -2 0 5 4 8 -1 11 -16 11 -48 -3 -79 2 -73 12 4
6 -5 10 -21 10 -39 0 -27 6 26 14 42 6 44 5 25 -10 -19 -15 -19 -15 10 -9 23
5 26 4 15 -4 -13 -10 -13 -11 0 -11 8 0 22 5 30 10 12 8 12 10 1 10 -8 0 -12
2 -9 5 3 3 13 2 22 -1 14 -5 15 -9 5 -15 -17 -10 33 -23 62 -16 14 4 19 2 15
-8 -3 -8 6 -15 27 -18 18 -2 34 -3 36 -1 1 1 -11 16 -28 33 -18 17 -28 31 -23
31 4 0 13 -5 19 -11 6 -6 19 -9 29 -7 16 3 14 8 -13 24 -18 12 -30 24 -26 27
3 4 1 7 -5 7 -7 0 -12 -5 -12 -10 0 -6 -11 -3 -25 6 -14 9 -22 21 -18 27 4 7
0 8 -12 4 -9 -4 -23 -3 -29 2 -6 5 -20 11 -31 13 -11 1 -23 8 -27 13 -5 6 -8
5 -8 -3 0 -7 -5 -10 -10 -7 -6 4 -8 10 -5 14 7 13 -139 5 -164 -8 -11 -7 -21
-9 -21 -5 0 3 -10 0 -23 -9 -20 -13 -25 -13 -42 0 -20 14 -19 14 5 33 55 43
120 60 215 57 74 -3 99 -8 141 -30z m-2596 -62 c0 -10 -10 -15 -32 -15 -25 0
-29 -3 -18 -10 12 -8 11 -10 -7 -10 -14 0 -23 -6 -23 -15 0 -8 -4 -15 -10 -15
-5 0 -10 4 -10 9 0 5 -3 23 -6 40 l-6 31 56 0 c43 0 56 -3 56 -15z m1405 -42
c-9 -21 -22 -48 -28 -60 -5 -12 -13 -39 -17 -60 -7 -37 -8 -37 -9 -7 0 17 10
56 22 85 13 30 27 63 31 73 3 10 9 16 12 13 3 -3 -2 -23 -11 -44z m728 33 c21
-8 47 -22 59 -32 19 -18 18 -19 -74 -41 -51 -12 -105 -22 -120 -23 -16 0 -28
-4 -28 -10 0 -5 -7 -10 -15 -10 -8 0 -15 -4 -15 -10 0 -5 4 -10 9 -10 21 0
134 -117 157 -162 39 -77 43 -217 6 -194 -6 3 -14 21 -17 39 -11 51 -62 139
-111 193 -25 27 -42 43 -38 35 11 -23 -37 -2 -71 30 -17 16 -34 29 -38 29 -10
0 -63 -37 -97 -67 -23 -21 -29 -24 -46 -22 -3 0 -14 -9 -23 -20 -19 -22 -47
-29 -35 -9 4 7 3 8 -5 4 -6 -4 -8 -12 -5 -18 5 -7 1 -9 -9 -5 -12 4 -21 -5
-34 -33 -33 -73 -46 -32 -17 54 37 108 222 250 374 286 54 13 151 11 193 -4z
m463 -31 c12 -9 14 -14 6 -15 -7 0 -20 7 -28 15 -20 19 -4 20 22 0z m-3401
-11 c56 -26 83 -87 64 -143 -9 -24 -19 -33 -51 -42 -60 -16 -87 -6 -126 45
-32 42 -29 90 7 127 33 33 58 36 106 13z m365 6 c0 -5 -2 -10 -4 -10 -3 0 -8
5 -11 10 -3 6 -1 10 4 10 6 0 11 -4 11 -10z m2920 -10 c0 -5 -8 -10 -17 -10
-15 0 -16 2 -3 10 19 12 20 12 20 0z m-1067 -15 c-3 -9 -8 -14 -10 -11 -3 3
-2 9 2 15 9 16 15 13 8 -4z m882 5 c-3 -5 -12 -10 -18 -10 -7 0 -6 4 3 10 19
12 23 12 15 0z m-875 -47 c-11 -17 -11 -17 -6 0 3 10 6 24 7 30 0 9 2 9 5 0 3
-7 0 -20 -6 -30z m977 31 c-3 -3 -12 -4 -19 -1 -8 3 -5 6 6 6 11 1 17 -2 13
-5z m-2477 -24 c0 -5 -5 -10 -11 -10 -5 0 -7 -4 -4 -10 7 -12 -2 -12 -30 0
-19 8 -19 9 3 9 12 1 22 6 22 11 0 6 5 10 10 10 6 0 10 -4 10 -10z m2827 -27
c0 -9 -4 -10 -14 -2 -7 6 -13 12 -13 14 0 1 6 2 13 2 8 0 14 -6 14 -14z m2459
8 c5 -5 19 -11 31 -13 20 -3 21 -4 6 -23 -13 -17 -15 -17 -9 -2 4 12 2 16 -5
11 -6 -3 -9 -15 -6 -25 3 -11 1 -19 -4 -19 -5 0 -9 -7 -9 -15 0 -9 -6 -12 -17
-8 -10 3 -15 3 -11 -2 8 -8 -40 -55 -56 -55 -4 0 -6 -9 -3 -21 3 -12 0 -22 -8
-25 -7 -3 -16 -17 -20 -32 -4 -15 -12 -30 -18 -34 -8 -5 -7 -8 3 -8 11 0 12
-2 3 -8 -7 -4 -14 -17 -16 -27 -1 -11 -7 -27 -12 -35 -5 -8 -8 -23 -6 -34 2
-12 -1 -16 -9 -11 -9 5 -10 1 -5 -14 4 -15 2 -21 -8 -21 -9 0 -13 -9 -12 -25
2 -15 -3 -29 -13 -35 -10 -5 -12 -10 -5 -10 17 0 3 -40 -15 -40 -8 0 -12 -3
-9 -7 4 -3 -1 -15 -10 -26 -13 -15 -14 -19 -3 -13 9 4 8 2 -2 -7 -22 -17 -23
-31 -3 -23 8 3 15 1 15 -5 0 -6 -9 -13 -19 -16 -12 -3 -17 -11 -14 -19 3 -9
-2 -14 -13 -14 -16 0 -17 -2 -4 -10 13 -9 13 -10 0 -10 -12 0 -13 -2 -1 -9 11
-7 10 -11 -5 -20 -14 -8 -15 -11 -4 -11 12 0 11 -4 -4 -15 -18 -14 -23 -27
-28 -76 -2 -11 -9 -15 -23 -12 -17 4 -18 3 -5 -7 12 -10 10 -10 -10 -5 -14 4
-33 7 -43 6 -10 0 -15 5 -11 11 4 6 0 14 -7 19 -11 7 -10 9 4 9 9 0 17 5 17
10 0 6 -6 10 -14 10 -20 0 -12 36 12 58 19 17 57 102 46 102 -4 0 -1 7 6 15 7
8 15 13 19 10 4 -2 13 16 19 41 7 24 18 44 24 44 9 0 8 4 -2 11 -11 8 -12 12
-2 16 6 2 12 15 12 27 0 13 3 26 7 30 4 3 8 16 10 28 2 12 8 25 15 29 6 4 7
12 4 18 -4 6 0 11 9 11 9 0 14 4 10 9 -3 5 -1 12 4 16 6 3 7 13 4 22 -5 12 -2
15 8 11 10 -4 15 1 17 15 0 12 9 28 19 35 14 10 15 14 4 21 -11 7 -10 13 2 32
9 13 18 37 21 52 3 16 11 36 18 44 7 8 17 24 23 36 5 11 17 21 27 23 9 1 24 7
35 13 23 13 36 14 49 2z m-5150 -28 c-7 -7 -26 7 -26 19 0 6 6 6 15 -2 9 -7
13 -15 11 -17z m-406 -59 c169 -52 562 -164 603 -171 15 -3 29 -8 31 -12 7
-11 -283 -93 -307 -86 -16 5 -18 4 -8 -3 11 -8 9 -11 -10 -17 -13 -4 -41 -20
-61 -36 -22 -17 -43 -26 -52 -23 -9 3 -28 3 -43 -1 -21 -5 -24 -8 -12 -16 12
-7 12 -9 -1 -9 -17 0 -51 20 -35 20 6 0 4 4 -4 9 -11 7 -9 10 7 15 11 4 23 13
26 21 7 20 36 19 36 0 0 -8 -9 -15 -19 -15 -11 0 -23 -4 -26 -10 -3 -5 -2 -10
4 -10 17 0 61 23 61 31 0 5 6 6 14 3 8 -3 17 -1 21 5 6 10 -13 16 -42 12 -7
-1 -13 5 -13 14 0 19 -36 20 -44 0 -3 -8 -11 -15 -17 -15 -7 0 -5 8 6 20 11
12 29 20 44 19 48 -4 72 1 66 12 -4 6 -19 7 -35 4 -17 -4 -31 -2 -35 5 -9 15
-2 21 24 23 35 2 24 17 -13 17 -38 0 -68 -30 -59 -59 4 -13 3 -13 -5 -2 -6 8
-8 21 -4 29 3 10 1 13 -6 8 -6 -3 -14 -1 -18 5 -5 8 -3 9 6 4 8 -5 11 -3 8 6
-3 8 -9 14 -14 14 -6 0 -28 17 -50 39 -21 21 -31 36 -22 33 10 -4 20 -2 23 3
3 5 -8 7 -23 5 -29 -4 -37 2 -133 91 -41 37 -60 80 -31 69 9 -4 82 -27 162
-51z m488 37 c3 -8 -1 -12 -9 -9 -7 2 -15 10 -17 17 -3 8 1 12 9 9 7 -2 15
-10 17 -17z m2077 -10 c49 -30 84 -71 91 -106 12 -65 1 -69 -41 -14 -21 28
-63 67 -92 87 -29 19 -53 39 -53 43 0 16 64 9 95 -10z m-613 -170 c-22 -23
-27 -19 -11 7 7 12 16 19 21 16 4 -3 0 -13 -10 -23z m-2301 -21 c51 -27 86
-63 110 -115 26 -56 25 -91 -3 -99 -35 -9 -68 -7 -68 4 0 19 -18 10 -24 -12
-9 -35 -87 -79 -125 -72 -27 6 -66 34 -45 34 4 0 0 6 -11 13 -23 17 -14 67 13
67 15 0 15 2 2 10 -8 5 -22 10 -30 10 -11 0 -12 -2 -3 -8 7 -4 9 -13 4 -21 -6
-9 -10 -8 -13 7 -8 27 5 44 44 59 l33 13 -35 -6 c-19 -3 -51 -20 -70 -39 -41
-38 -70 -51 -70 -30 0 7 -7 21 -16 29 -38 39 38 137 135 173 46 17 118 10 172
-17z m2493 -5 c3 -8 1 -25 -4 -38 -5 -12 -25 -67 -45 -122 -37 -100 -62 -142
-76 -128 -15 15 28 165 78 271 16 34 37 42 47 17z m-3956 -69 c7 -18 21 -41
32 -51 28 -25 25 -30 -18 -43 -21 -7 -47 -21 -57 -32 -20 -22 -35 -18 -35 10
0 11 -13 35 -30 53 l-29 34 38 11 c21 7 46 21 56 32 24 27 29 26 43 -14z
m2805 -68 c18 -24 19 -32 9 -66 -23 -77 -122 -85 -151 -13 -34 81 89 150 142
79z m-793 -59 c0 -6 -24 -19 -36 -19 -2 0 -4 6 -4 14 0 9 9 14 20 13 11 -1 20
-4 20 -8z m-147 -105 c39 -26 77 -77 77 -106 0 -9 -26 -44 -58 -77 -54 -56
-63 -61 -101 -61 -68 0 -111 35 -135 110 l-15 45 5 -40 c4 -30 3 -36 -5 -25
-20 29 -13 86 16 121 59 70 140 83 216 33z m687 -6 c62 -38 109 -103 117 -166
6 -43 -24 -107 -70 -150 -21 -20 -25 -21 -37 -7 -7 8 -8 15 -2 15 5 0 12 9 15
21 5 20 5 20 -13 4 -11 -10 -24 -14 -32 -9 -7 4 -41 9 -75 10 -58 2 -66 5
-105 42 -41 40 -42 40 -58 19 -21 -25 -39 -16 -32 18 4 26 -12 35 -22 13 -3
-7 -4 -1 -1 14 3 15 0 28 -6 30 -22 7 10 75 53 113 53 49 91 64 158 65 46 0
66 -6 110 -32z m-411 -62 c8 -10 8 -23 -2 -52 -8 -21 -24 -82 -37 -134 -26
-104 -49 -142 -74 -121 -10 8 -12 18 -7 29 12 25 42 148 52 215 5 33 11 63 15
68 8 14 40 11 53 -5z m1819 -82 c-21 -21 -29 -24 -44 -15 -15 8 -16 11 -4 12
8 1 18 1 23 0 4 0 7 3 7 8 0 8 8 12 40 20 2 0 -7 -11 -22 -25z m-1721 -86 c-3
-8 -6 -5 -6 6 -1 11 2 17 5 13 3 -3 4 -12 1 -19z m4643 -29 c134 -44 324 -127
293 -129 -16 0 -17 -56 -1 -66 8 -5 6 -10 -8 -15 -12 -5 -5 -7 20 -4 42 4 59
20 50 48 -5 15 -2 16 22 7 57 -22 123 -65 138 -90 14 -24 14 -29 0 -48 -19
-27 -37 -27 -94 0 -25 12 -52 23 -60 24 -8 1 -71 27 -139 59 -68 31 -177 74
-242 95 -65 21 -128 45 -141 54 -23 16 -23 16 12 10 19 -3 52 -10 74 -16 63
-16 53 -1 -12 17 -60 17 -60 17 -50 46 13 36 46 38 138 8z m-4582 -13 c-7 -8
-15 -12 -17 -11 -5 6 10 25 20 25 5 0 4 -6 -3 -14z m-2274 -32 c237 -70 376
-115 376 -122 0 -4 -12 -42 -26 -85 -20 -62 -29 -77 -42 -73 -10 3 -76 23
-149 46 -113 34 -173 47 -173 37 0 -1 -9 -32 -19 -69 l-19 -66 66 -17 c143
-35 233 -68 227 -82 -2 -8 -13 -43 -22 -79 -9 -35 -23 -64 -30 -64 -6 0 -74
18 -150 40 -114 32 -140 37 -148 26 -5 -8 -26 -69 -45 -135 -40 -139 -22 -129
-152 -89 -38 11 -68 24 -68 29 0 5 41 143 91 306 51 164 101 328 112 366 13
44 25 67 35 67 8 0 69 -16 136 -36z m2516 -58 c0 -3 -4 -8 -10 -11 -5 -3 -10
-1 -10 4 0 6 5 11 10 11 6 0 10 -2 10 -4z m4330 -33 c46 -13 118 -42 160 -64
l77 -40 -32 -67 c-18 -37 -44 -98 -58 -137 -14 -38 -28 -77 -32 -86 -4 -10 3
-19 20 -27 14 -7 30 -12 35 -12 19 0 135 273 125 291 -4 5 -3 9 1 9 11 0 122
-70 154 -96 32 -27 33 -20 -20 -139 -10 -22 -23 -57 -30 -78 -11 -36 -52 -87
-69 -87 -18 0 -87 33 -117 55 -49 37 -209 109 -354 160 -74 26 -137 49 -139
51 -2 2 1 9 7 16 11 14 59 138 107 276 6 16 43 10 165 -25z m-4363 11 c-3 -3
-12 -4 -19 -1 -8 3 -5 6 6 6 11 1 17 -2 13 -5z m1366 -158 c3 -8 -1 -20 -9
-27 -12 -10 -18 -9 -31 3 -8 9 -12 21 -9 27 10 16 43 14 49 -3z m-3412 -111
c94 -24 97 -26 76 -70 -17 -36 -17 -36 4 -23 55 33 66 38 93 38 36 0 106 -20
106 -31 0 -5 -16 -42 -36 -82 l-36 -73 -57 4 c-104 7 -143 -39 -196 -233 -16
-58 -34 -105 -40 -105 -6 0 -47 11 -91 24 -95 29 -94 9 -20 249 29 94 64 207
76 250 18 60 27 76 39 73 9 -3 46 -12 82 -21z m3225 -66 c119 -60 175 -210
118 -321 -7 -14 -19 -28 -26 -30 -24 -8 -61 5 -65 23 -6 21 -29 26 -35 8 -2
-7 -29 -12 -65 -12 -54 -1 -65 2 -106 33 -25 19 -43 38 -41 41 7 11 -37 18
-60 9 -12 -4 -29 -4 -38 1 -12 7 -17 3 -22 -18 -4 -14 -2 -31 3 -36 6 -6 11
-18 11 -27 -1 -37 -33 48 -37 101 -11 117 56 210 177 250 42 14 135 3 186 -22z
m3010 -3 c90 -31 136 -51 176 -77 l33 -20 -35 6 c-19 4 -41 12 -48 17 -6 6
-25 8 -41 5 -15 -3 -33 -1 -39 5 -6 6 -33 18 -59 27 -26 9 -46 19 -43 23 3 4
-4 14 -15 22 -29 22 -9 19 71 -8z m-56 -56 c0 -5 -2 -10 -4 -10 -3 0 -8 5 -11
10 -3 6 -1 10 4 10 6 0 11 -4 11 -10z m-5661 -11 c106 -22 189 -107 211 -216
10 -45 9 -66 -5 -124 -10 -38 -18 -69 -20 -69 -2 0 -77 20 -167 45 -89 25
-166 45 -170 45 -5 0 -8 -14 -8 -30 0 -70 98 -111 181 -76 12 5 26 -9 57 -56
l41 -62 -42 -20 c-60 -27 -162 -33 -225 -12 -116 39 -197 153 -196 276 2 144
80 256 207 296 53 16 74 17 136 3z m1059 -58 c41 -11 76 -22 79 -24 5 -6 6 -3
-96 -341 -45 -147 -81 -269 -79 -271 2 -1 74 -23 162 -48 87 -25 160 -48 163
-50 4 -5 -46 -158 -56 -169 -4 -4 -108 23 -231 61 -124 37 -237 71 -252 75
-16 3 -28 12 -28 19 0 6 25 91 55 187 30 96 82 266 117 378 46 149 66 202 78
202 8 0 48 -9 88 -19z m4619 -33 c-3 -8 -6 -5 -6 6 -1 11 2 17 5 13 3 -3 4
-12 1 -19z m-5061 -91 c113 -57 171 -182 145 -308 -6 -30 -15 -60 -19 -66 -7
-11 -143 23 -334 83 -14 4 -18 -1 -18 -24 0 -67 85 -116 161 -93 20 6 39 11
42 11 7 0 80 -120 76 -124 -24 -19 -116 -41 -174 -41 -153 1 -277 111 -292
260 -14 132 87 284 217 326 46 15 142 3 196 -24z m1814 -221 c246 -72 393
-116 397 -120 1 -1 -7 -29 -18 -63 -19 -54 -27 -65 -82 -104 -34 -23 -154
-112 -265 -198 l-204 -154 167 -49 c190 -55 208 -63 201 -86 -52 -181 -48
-177 -123 -147 -21 8 -96 31 -168 51 -71 19 -184 51 -250 70 -66 19 -144 39
-172 45 -61 14 -64 22 -30 89 17 32 42 58 88 90 35 24 160 114 278 199 l214
156 -99 31 c-54 17 -139 41 -187 55 -100 27 -94 13 -55 142 14 48 25 67 37 67
9 0 131 -33 271 -74z m-739 -32 c68 -19 131 -68 159 -125 34 -65 27 -132 -35
-349 -31 -107 -58 -196 -60 -198 -3 -3 -41 5 -86 18 -79 23 -81 24 -77 52 4
23 2 28 -11 23 -9 -4 -39 -9 -67 -12 -97 -10 -171 33 -199 118 -33 100 3 197
87 238 54 25 151 28 224 6 27 -8 50 -15 52 -15 1 0 2 10 2 23 0 48 -86 94
-150 81 -72 -15 -66 -19 -79 52 -6 37 -10 69 -7 72 11 11 103 31 145 31 25 1
71 -6 102 -15z m-2726 -324 c0 -18 -6 -26 -23 -28 -24 -4 -38 18 -28 44 3 9
15 14 28 12 17 -2 23 -10 23 -28z m-1834 -291 c-5 -13 -10 -19 -10 -12 -1 15
10 45 15 40 3 -2 0 -15 -5 -28z m-37 -144 c-14 -47 -28 -84 -30 -82 -2 1 9 46
24 100 15 53 28 90 30 83 2 -8 -9 -53 -24 -101z m-67 -227 c-3 -8 -6 -5 -6 6
-1 11 2 17 5 13 3 -3 4 -12 1 -19z m4491 -126 c4 -26 -22 -40 -43 -22 -11 9
-12 17 -4 32 13 25 43 19 47 -10z m-4531 -14 c-3 -8 -6 -5 -6 6 -1 11 2 17 5
13 3 -3 4 -12 1 -19z m-30 -110 c-3 -8 -6 -5 -6 6 -1 11 2 17 5 13 3 -3 4 -12
1 -19z m7823 -598 c0 -5 -5 -10 -11 -10 -5 0 -7 5 -4 10 3 6 8 10 11 10 2 0 4
-4 4 -10z"/>
<path d="M3131 9664 c0 -11 3 -14 6 -6 3 7 2 16 -1 19 -3 4 -6 -2 -5 -13z"/>
<path d="M3156 9671 c-4 -7 -5 -15 -2 -18 9 -9 19 4 14 18 -4 11 -6 11 -12 0z"/>
<path d="M3880 9639 c-14 -52 -10 -74 15 -74 26 0 50 67 35 96 -17 31 -38 22
-50 -22z"/>
<path d="M4265 9529 c-21 -40 -16 -74 10 -74 14 0 23 11 32 37 22 66 -12 96
-42 37z"/>
<path d="M7902 8493 c4 -33 41 -45 52 -17 8 21 -11 44 -36 44 -15 0 -19 -6
-16 -27z"/>
<path d="M8062 8358 c4 -28 42 -37 52 -13 9 24 -1 35 -30 35 -21 0 -25 -4 -22
-22z"/>
<path d="M5503 7293 c-17 -6 -16 -23 0 -23 8 0 32 -13 54 -29 33 -24 43 -40
54 -81 12 -48 15 -51 39 -44 36 10 120 10 155 0 30 -9 30 -9 14 14 -28 43 -65
63 -113 63 -41 0 -46 3 -51 29 -12 54 -97 94 -152 71z"/>
<path d="M4408 6693 c7 -3 16 -2 19 1 4 3 -2 6 -13 5 -11 0 -14 -3 -6 -6z"/>
<path d="M4516 6691 c-4 -7 -5 -15 -2 -18 9 -9 19 4 14 18 -4 11 -6 11 -12 0z"/>
<path d="M4547 6685 c-4 -8 -2 -17 3 -20 6 -4 10 3 10 14 0 25 -6 27 -13 6z"/>
<path d="M4591 6664 c0 -11 3 -14 6 -6 3 7 2 16 -1 19 -3 4 -6 -2 -5 -13z"/>
<path d="M5480 6474 c-13 -32 3 -56 34 -52 39 6 29 78 -10 78 -8 0 -19 -12
-24 -26z"/>
<path d="M5196 6469 c-13 -19 -12 -23 5 -40 26 -26 47 -24 55 6 12 48 -32 73
-60 34z"/>
<path d="M4962 6425 c-81 -41 -132 -79 -120 -90 3 -3 21 -6 41 -7 20 -1 34 -5
32 -9 -7 -10 5 -39 15 -39 5 0 6 10 2 22 -5 21 -4 21 19 5 32 -23 42 -21 34 5
-6 17 -4 20 10 14 13 -5 16 -2 11 10 -5 12 -1 14 17 8 13 -4 18 -3 12 2 -5 5
-13 13 -16 17 -3 5 -13 1 -23 -8 -9 -9 -16 -12 -16 -6 0 6 20 21 45 33 47 23
55 35 30 44 -18 7 -20 30 -2 37 6 3 8 5 2 5 -5 0 -47 -19 -93 -43z"/>
<path d="M5697 6339 c-4 -14 -17 -19 -67 -21 l-62 -3 21 -24 c28 -32 34 -56
22 -80 -11 -21 -15 -61 -6 -61 3 0 20 6 38 14 33 13 77 6 77 -13 0 -9 30 -24
37 -18 2 2 -1 17 -7 32 -7 19 -7 31 1 41 13 16 4 34 -20 34 -42 0 -54 51 -22
92 15 18 16 25 6 25 -7 0 -16 -8 -18 -18z"/>
<path d="M5010 6280 c0 -5 5 -10 11 -10 5 0 7 5 4 10 -3 6 -8 10 -11 10 -2 0
-4 -4 -4 -10z"/>
<path d="M4972 6252 c-11 -25 -11 -25 4 -10 9 9 15 21 13 27 -2 6 -10 -2 -17
-17z"/>
<path d="M4903 6245 c0 -18 19 -15 25 3 2 7 -3 12 -10 12 -8 0 -15 -7 -15 -15z"/>
<path d="M4690 6230 c0 -4 6 -12 13 -18 10 -8 13 -6 13 7 0 10 -6 18 -13 18
-7 0 -13 -4 -13 -7z"/>
<path d="M5410 6211 c0 -10 7 -24 15 -31 13 -11 15 -9 15 13 0 14 -7 27 -15
31 -10 3 -15 -1 -15 -13z"/>
<path d="M4808 6203 c6 -2 18 -2 25 0 6 3 1 5 -13 5 -14 0 -19 -2 -12 -5z"/>
<path d="M5050 6170 c0 -6 7 -10 15 -10 8 0 15 2 15 4 0 2 -7 6 -15 10 -8 3
-15 1 -15 -4z"/>
<path d="M5501 6140 c0 -8 4 -22 9 -30 12 -18 12 -2 0 25 -6 13 -9 15 -9 5z"/>
<path d="M4463 6110 c-1 -11 2 -22 6 -24 4 -3 7 4 8 14 1 11 -2 22 -6 24 -4 3
-7 -4 -8 -14z"/>
<path d="M4560 6111 c0 -5 5 -13 10 -16 6 -3 10 -2 10 4 0 5 -4 13 -10 16 -5
3 -10 2 -10 -4z"/>
<path d="M5660 6051 c0 -5 7 -11 14 -14 10 -4 13 -1 9 9 -6 15 -23 19 -23 5z"/>
<path d="M6007 5857 c-3 -8 1 -14 8 -14 7 0 11 6 8 14 -3 7 -6 13 -8 13 -2 0
-5 -6 -8 -13z"/>
<path d="M5895 5820 c-8 -12 2 -30 17 -30 7 0 7 4 -1 13 -6 8 -8 17 -4 20 3 4
4 7 0 7 -3 0 -9 -4 -12 -10z"/>
<path d="M5896 5761 c-3 -5 1 -12 10 -15 8 -3 13 -2 9 3 -3 5 1 12 7 14 8 4 7
6 -4 6 -9 1 -19 -3 -22 -8z"/>
<path d="M4040 6556 c0 -2 8 -10 18 -17 15 -13 16 -12 3 4 -13 16 -21 21 -21
13z"/>
<path d="M6290 6124 c0 -8 5 -12 10 -9 6 4 8 11 5 16 -9 14 -15 11 -15 -7z"/>
<path d="M6230 6116 c0 -17 16 -30 23 -19 3 5 -1 14 -9 21 -12 10 -14 10 -14
-2z"/>
<path d="M6269 6102 c-3 -20 -2 -29 4 -23 5 5 7 19 5 32 -3 20 -5 19 -9 -9z"/>
<path d="M6480 6040 c0 -5 5 -10 10 -10 6 0 10 5 10 10 0 6 -4 10 -10 10 -5 0
-10 -4 -10 -10z"/>
<path d="M2565 5660 c-3 -5 -2 -10 4 -10 5 0 13 5 16 10 3 6 2 10 -4 10 -5 0
-13 -4 -16 -10z"/>
<path d="M2625 5646 c17 -7 41 -16 55 -20 20 -5 19 -3 -5 8 -16 7 -41 16 -55
20 -20 5 -19 3 5 -8z"/>
<path d="M2790 5585 c0 -8 4 -15 8 -15 5 0 9 7 9 15 0 8 -4 15 -9 15 -4 0 -8
-7 -8 -15z"/>
<path d="M2850 5570 c8 -5 20 -10 25 -10 6 0 3 5 -5 10 -8 5 -19 10 -25 10 -5
0 -3 -5 5 -10z"/>
<path d="M3130 5480 c0 -5 5 -10 11 -10 5 0 7 5 4 10 -3 6 -8 10 -11 10 -2 0
-4 -4 -4 -10z"/>
<path d="M3185 5400 c3 -5 8 -10 11 -10 2 0 4 5 4 10 0 6 -5 10 -11 10 -5 0
-7 -4 -4 -10z"/>
<path d="M3558 5273 c6 -2 18 -2 25 0 6 3 1 5 -13 5 -14 0 -19 -2 -12 -5z"/>
<path d="M2890 5240 c0 -5 10 -10 23 -10 18 0 19 2 7 10 -19 13 -30 13 -30 0z"/>
<path d="M3115 4811 c-2 -5 8 -8 24 -7 40 2 46 10 10 13 -15 1 -31 -2 -34 -6z"/>
<path d="M3167 4680 c3 -11 7 -20 9 -20 2 0 4 9 4 20 0 11 -4 20 -9 20 -5 0
-7 -9 -4 -20z"/>
<path d="M3360 4690 c0 -5 5 -10 11 -10 5 0 7 -5 3 -12 -4 -7 -3 -8 5 -4 9 6
9 11 0 22 -14 17 -19 18 -19 4z"/>
<path d="M3140 4669 c7 -11 14 -19 16 -16 7 7 -7 37 -17 37 -6 0 -5 -9 1 -21z"/>
<path d="M2650 4960 c0 -5 5 -10 11 -10 5 0 7 5 4 10 -3 6 -8 10 -11 10 -2 0
-4 -4 -4 -10z"/>
<path d="M4815 4640 c-27 -29 -10 -74 28 -78 53 -6 77 46 39 81 -25 22 -45 21
-67 -3z"/>
<path d="M6998 4533 c7 -3 16 -2 19 1 4 3 -2 6 -13 5 -11 0 -14 -3 -6 -6z"/>
<path d="M7050 4530 c8 -5 22 -9 30 -9 10 0 8 3 -5 9 -27 12 -43 12 -25 0z"/>
<path d="M6898 4513 c7 -3 16 -2 19 1 4 3 -2 6 -13 5 -11 0 -14 -3 -6 -6z"/>
<path d="M7108 4513 c6 -2 18 -2 25 0 6 3 1 5 -13 5 -14 0 -19 -2 -12 -5z"/>
<path d="M7068 4503 c7 -3 16 -2 19 1 4 3 -2 6 -13 5 -11 0 -14 -3 -6 -6z"/>
<path d="M7128 4493 c12 -2 30 -2 40 0 9 3 -1 5 -23 4 -22 0 -30 -2 -17 -4z"/>
<path d="M6838 4483 c7 -3 16 -2 19 1 4 3 -2 6 -13 5 -11 0 -14 -3 -6 -6z"/>
<path d="M7234 4483 c15 -4 16 -7 5 -14 -10 -7 -5 -8 13 -3 15 3 44 0 65 -7
21 -7 41 -12 45 -11 4 1 19 -3 33 -8 15 -6 24 -6 20 -1 -5 9 -173 52 -191 50
-5 -1 0 -4 10 -6z"/>
<path d="M7178 4473 c6 -2 18 -2 25 0 6 3 1 5 -13 5 -14 0 -19 -2 -12 -5z"/>
<path d="M6791 4444 c0 -11 3 -14 6 -6 3 7 2 16 -1 19 -3 4 -6 -2 -5 -13z"/>
<path d="M6880 4444 c0 -14 3 -14 15 -4 8 7 15 14 15 16 0 2 -7 4 -15 4 -8 0
-15 -7 -15 -16z"/>
<path d="M6910 4430 c0 -5 7 -7 15 -4 8 4 15 8 15 10 0 2 -7 4 -15 4 -8 0 -15
-4 -15 -10z"/>
<path d="M7435 4431 c-6 -11 13 -26 22 -17 4 3 1 6 -6 6 -7 0 -9 5 -6 10 3 6
4 10 1 10 -3 0 -7 -4 -11 -9z"/>
<path d="M7515 4410 c3 -6 -4 -10 -17 -10 -21 -1 -22 -1 -4 -11 14 -9 20 -8
27 2 12 19 11 29 -2 29 -5 0 -7 -4 -4 -10z"/>
<path d="M6668 4403 c7 -3 16 -2 19 1 4 3 -2 6 -13 5 -11 0 -14 -3 -6 -6z"/>
<path d="M6620 4381 c16 -30 24 -32 56 -9 26 18 21 19 -21 2 -9 -4 -17 1 -21
10 -3 9 -10 16 -15 16 -6 0 -5 -8 1 -19z"/>
<path d="M6554 4339 c-3 -6 2 -18 12 -27 17 -16 17 -16 5 0 -7 9 -10 22 -6 28
3 5 4 10 1 10 -3 0 -8 -5 -12 -11z"/>
<path d="M6330 4641 c0 -5 7 -12 16 -15 14 -5 15 -4 4 9 -14 17 -20 19 -20 6z"/>
<path d="M4152 4198 c3 -7 15 -13 27 -12 11 0 21 -3 21 -8 0 -4 5 -8 11 -8 8
0 7 5 -1 15 -7 9 -15 13 -18 11 -2 -3 -14 -1 -24 5 -16 9 -19 8 -16 -3z"/>
<path d="M4127 4193 c-4 -3 -7 -11 -7 -17 0 -6 5 -5 12 2 6 6 9 14 7 17 -3 3
-9 2 -12 -2z"/>
<path d="M4160 4149 c-7 -11 -9 -23 -6 -27 3 -3 6 0 6 6 0 6 9 14 20 17 11 4
18 11 15 16 -10 15 -24 10 -35 -12z"/>
<path d="M4225 4160 c-3 -5 -1 -10 4 -10 6 0 11 5 11 10 0 6 -2 10 -4 10 -3 0
-8 -4 -11 -10z"/>
<path d="M4121 4150 c0 -8 4 -24 9 -35 l9 -20 0 20 c0 11 -4 27 -9 35 -9 13
-10 13 -9 0z"/>
<path d="M4170 3998 c-21 -23 -26 -53 -10 -63 5 -3 8 -11 6 -18 -1 -7 -1 -8 2
-4 2 4 10 3 18 -4 8 -6 23 -9 34 -6 11 3 18 1 15 -3 -3 -5 11 -8 32 -6 47 5
64 33 38 68 -16 22 -16 16 1 -27 5 -11 2 -13 -10 -9 -19 7 -31 47 -20 65 4 7
3 9 -3 6 -6 -4 -16 0 -23 8 -18 22 -56 18 -80 -7z"/>
<path d="M4311 3984 c0 -11 3 -14 6 -6 3 7 2 16 -1 19 -3 4 -6 -2 -5 -13z"/>
<path d="M4500 3910 c36 -12 60 -12 60 0 0 6 -19 10 -42 9 -37 -1 -39 -2 -18
-9z"/>
<path d="M4350 3880 c0 -5 5 -10 10 -10 6 0 10 5 10 10 0 6 -4 10 -10 10 -5 0
-10 -4 -10 -10z"/>
<path d="M4580 3870 c0 -5 9 -10 20 -10 11 0 20 5 20 10 0 6 -9 10 -20 10 -11
0 -20 -4 -20 -10z"/>
<path d="M4737 3873 c-11 -10 13 -33 34 -33 17 0 18 3 7 20 -13 20 -29 26 -41
13z"/>
<path d="M4827 3863 c-13 -12 -7 -23 13 -23 13 0 18 5 14 15 -7 16 -17 19 -27
8z"/>
<path d="M4880 3855 c0 -8 7 -15 16 -15 14 0 14 3 4 15 -7 8 -14 15 -16 15 -2
0 -4 -7 -4 -15z"/>
<path d="M4700 3831 c0 -6 5 -13 10 -16 6 -3 10 1 10 9 0 9 -4 16 -10 16 -5 0
-10 -4 -10 -9z"/>
<path d="M4336 3822 c-3 -6 -1 -14 5 -17 15 -10 25 3 12 16 -7 7 -13 7 -17 1z"/>
<path d="M4888 3823 c7 -3 16 -2 19 1 4 3 -2 6 -13 5 -11 0 -14 -3 -6 -6z"/>
<path d="M4418 3813 c12 -2 32 -2 45 0 12 2 2 4 -23 4 -25 0 -35 -2 -22 -4z"/>
<path d="M5125 3810 c-3 -5 -1 -10 4 -10 6 0 11 5 11 10 0 6 -2 10 -4 10 -3 0
-8 -4 -11 -10z"/>
<path d="M4908 3803 c7 -3 16 -2 19 1 4 3 -2 6 -13 5 -11 0 -14 -3 -6 -6z"/>
<path d="M4786 3785 c-4 -12 -3 -21 3 -23 6 -2 11 -11 11 -19 0 -9 3 -14 6
-11 3 3 1 21 -3 39 -8 29 -10 31 -17 14z"/>
<path d="M4667 3784 c-13 -13 -7 -24 14 -24 11 0 19 5 17 12 -5 14 -22 21 -31
12z"/>
<path d="M4900 3760 c-11 -11 -20 -32 -20 -47 0 -21 -3 -24 -9 -14 -6 9 -6 24
0 38 8 21 7 23 -11 13 -33 -17 -34 -32 -7 -56 15 -13 27 -30 27 -39 0 -8 7
-15 16 -15 13 0 14 3 5 14 -10 11 -4 13 34 9 35 -4 46 -2 51 11 3 9 11 13 16
10 6 -4 5 3 -1 15 -9 16 -9 26 0 42 6 12 7 19 1 15 -5 -3 -26 1 -46 9 -33 14
-37 14 -56 -5z"/>
<path d="M4930 3615 c0 -8 2 -15 4 -15 2 0 6 7 10 15 3 8 1 15 -4 15 -6 0 -10
-7 -10 -15z"/>
<path d="M4796 3592 c-2 -4 12 -9 32 -10 41 -3 41 2 0 12 -15 3 -29 2 -32 -2z"/>
<path d="M6748 4173 c7 -3 16 -2 19 1 4 3 -2 6 -13 5 -11 0 -14 -3 -6 -6z"/>
<path d="M6527 4062 c-14 -15 -14 -19 -3 -19 8 0 17 9 19 19 3 10 4 18 3 18
-2 0 -10 -8 -19 -18z"/>
<path d="M6253 4003 c9 -2 23 -2 30 0 6 3 -1 5 -18 5 -16 0 -22 -2 -12 -5z"/>
<path d="M6845 3970 c27 -12 43 -12 25 0 -8 5 -22 9 -30 9 -10 0 -8 -3 5 -9z"/>
<path d="M6810 3940 c-13 -8 -12 -10 3 -10 9 0 17 5 17 10 0 12 -1 12 -20 0z"/>
<path d="M6500 3663 c0 -5 9 -14 20 -21 11 -7 20 -8 20 -2 0 5 -9 14 -20 20
-11 6 -20 7 -20 3z"/>
<path d="M4354 3438 c-4 -6 -3 -8 4 -4 6 3 18 -4 26 -16 18 -25 21 -17 6 13
-12 22 -25 24 -36 7z"/>
<path d="M4458 3443 c7 -3 16 -2 19 1 4 3 -2 6 -13 5 -11 0 -14 -3 -6 -6z"/>
<path d="M4554 3345 c8 -8 20 -15 27 -15 7 0 4 6 -7 15 -25 19 -40 19 -20 0z"/>
<path d="M3780 3300 c0 -5 9 -10 21 -10 11 0 17 5 14 10 -3 6 -13 10 -21 10
-8 0 -14 -4 -14 -10z"/>
<path d="M5056 2834 c-9 -24 -2 -26 12 -4 7 11 8 20 3 20 -5 0 -12 -7 -15 -16z"/>
<path d="M4572 2940 c0 -14 2 -19 5 -12 2 6 2 18 0 25 -3 6 -5 1 -5 -13z"/>
<path d="M9341 2796 c2 -2 65 -26 139 -54 74 -28 127 -44 117 -37 -11 7 -71
32 -134 54 -109 39 -132 46 -122 37z"/>
<path d="M3356 2179 c-14 -11 -26 -23 -26 -27 0 -4 28 -16 63 -26 34 -11 72
-23 85 -27 18 -6 22 -4 22 16 0 13 -12 37 -26 54 -31 38 -78 41 -118 10z"/>
<path d="M3907 2022 c-10 -10 -17 -23 -17 -28 0 -8 131 -54 153 -54 17 0 5 53
-18 75 -30 31 -93 34 -118 7z"/>
<path d="M5370 1305 c-7 -9 -10 -18 -6 -22 3 -3 6 -1 6 6 0 7 4 10 8 7 5 -3 9
1 9 9 0 19 -2 19 -17 0z"/>
<path d="M5478 1303 c6 -2 18 -2 25 0 6 3 1 5 -13 5 -14 0 -19 -2 -12 -5z"/>
<path d="M5530 1300 c8 -5 22 -9 30 -9 10 0 8 3 -5 9 -27 12 -43 12 -25 0z"/>
<path d="M5346 1255 c-3 -9 -6 -22 -5 -28 0 -7 5 -1 10 12 5 13 8 26 5 28 -2
2 -6 -3 -10 -12z"/>
<path d="M5928 1163 c7 -3 16 -2 19 1 4 3 -2 6 -13 5 -11 0 -14 -3 -6 -6z"/>
<path d="M4966 1548 c-51 -72 46 -136 109 -73 14 13 25 31 25 40 0 51 -104 77
-134 33z"/>
<path d="M82 6993 c-17 -15 -19 -21 -8 -19 20 3 39 21 35 33 -2 4 -14 -2 -27
-14z"/>
</g>
</svg>
